<svg width="334" height="108" fill="none" xmlns="http://www.w3.org/2000/svg"><path d="M103.666 8.86c35.894 8.56 125.364 19.403 196.081-5.706M298.14 105.874c-31.341-8.56-89.201-24.254-192.063-6.563" stroke="#fff" stroke-width="4" stroke-linecap="round" stroke-linejoin="round"/><path d="M258.719 35.723c.293-1.555-.89-3.025-2.642-3.284-1.752-.259-3.407.791-3.7 2.346l6.342.938zm28.17 34.484l3.152.56c.042-.185.063-.372.063-.56h-3.215zm4.018 7.133c1.776 0 3.215-1.277 3.215-2.853 0-1.577-1.439-2.853-3.215-2.853v5.706zm-38.53-42.555c-1.356 7.227-2.755 18.124-2.493 27.291.131 4.546.672 8.916 1.984 12.24 1.26 3.194 3.774 6.59 8.502 6.59V75.2c-.413 0-1.41-.17-2.435-2.77-.976-2.473-1.5-6.128-1.623-10.5-.248-8.665 1.086-19.168 2.407-26.207l-6.342-.938zm7.993 46.122c4.822 0 8.825-3.183 11.852-6.627 3.172-3.61 6.009-8.355 8.365-13.084a114.935 114.935 0 005.685-13.609c.681-1.986 1.225-3.768 1.599-5.211.351-1.346.625-2.654.625-3.556h-6.429c0-.002 0 .053-.016.185-.016.125-.04.29-.078.496-.078.415-.2.949-.367 1.593-.334 1.287-.834 2.938-1.483 4.831a110.152 110.152 0 01-5.415 12.963c-2.263 4.544-4.851 8.805-7.556 11.882-2.849 3.243-5.173 4.43-6.782 4.43v5.707zm28.126-42.087c0-.34.01-.381-.001-.295 0 .007-.02.194-.098.431-.024.075-.147.463-.482.874a3.142 3.142 0 01-1.236.902 3.583 3.583 0 01-2.459.096 3.245 3.245 0 01-1.304-.79 2.805 2.805 0 01-.413-.523 2.652 2.652 0 01-.228-.473 2.07 2.07 0 01-.081-.275c-.011-.048.005.02.037.313.028.251.06.592.097 1.017.148 1.708.347 4.6.548 8.054.4 6.913.799 15.95.799 22.056h6.429c0-6.257-.405-15.412-.809-22.349-.201-3.47-.403-6.42-.558-8.197-.069-.799-.143-1.57-.229-1.971a2.83 2.83 0 00-.773-1.429c-.2-.2-.624-.571-1.312-.794a3.592 3.592 0 00-2.465.095 3.153 3.153 0 00-1.241.908c-.341.416-.466.812-.495.897-.084.26-.111.482-.118.536a8.453 8.453 0 00-.037.917h6.429zm-4.759 30.828c-.231 1.023.039 2.008.286 2.652.28.729.711 1.47 1.249 2.144.965 1.206 2.876 2.896 5.635 2.896v-5.707c.193 0 .243.065.126-.007a2.126 2.126 0 01-.518-.485 2.731 2.731 0 01-.408-.686c-.034-.09-.039-.126-.036-.107 0 .003.028.161-.03.418l-6.304-1.118zM328.367 35.24c1.768.152 3.338-.996 3.51-2.565.171-1.568-1.123-2.963-2.89-3.114l-.62 5.68zm-28.62 9.287h-3.214 3.214zm21.698 10.7l-.751 2.775.751-2.775zm-15.963 17.237c-1.702-.447-3.491.415-3.996 1.926-.503 1.51.468 3.099 2.17 3.547l1.826-5.473zm23.505-42.903c-4.463-.384-12.139-.203-18.835 1.629-6.528 1.785-13.619 5.64-13.619 13.337h6.429c0-3.716 3.222-6.28 9.082-7.884 5.693-1.557 12.482-1.732 16.323-1.402l.62-5.68zm-32.454 14.966c0 .974.14 2.23.921 3.578.768 1.327 2.015 2.504 3.783 3.585 3.43 2.1 9.346 4.158 19.457 6.312l1.501-5.55c-9.979-2.125-14.912-3.992-17.308-5.458-1.144-.702-1.554-1.218-1.716-1.497-.148-.258-.209-.518-.209-.97h-6.429zm24.161 13.475c3.837.817 5.362 2.387 5.887 3.735.566 1.452.287 3.445-1.239 5.535-3.013 4.13-10.345 7.694-19.86 5.192l-1.826 5.473c12.183 3.204 22.483-1.26 27.083-7.563 2.281-3.127 3.302-6.952 1.918-10.503-1.426-3.657-5.102-6.276-10.462-7.419l-1.501 5.55z" fill="#fff"/><path d="M159.919 59.507c51.339-18.696 30.439-30.214 0-27.107m-20.894 4.28c6.98-2.194 14.169-3.594 20.894-4.28l-20.894 4.28zm20.894 22.827l36.966 12.84-36.966-12.84zm0 0v19.26V32.4v27.107zM221.797 36.68v36.38m-23.305-33.526c5.894-.476 18.162-1.712 23.305-2.853l-23.305 2.853zm23.305-2.853c6.429-1.427 13.661-1.427 20.09-1.427l-20.09 1.427zm0 0V32.4v4.28z" stroke="#fff" stroke-width="4" stroke-linecap="round" stroke-linejoin="round"/><path fill-rule="evenodd" clip-rule="evenodd" d="M82.263.103c0 .057.176.17.391.254.216.083.392.036.392-.103 0-.14-.176-.254-.392-.254-.215 0-.391.046-.391.103zm-4.44.683c0 .145-.254.263-.566.263-.31 0-.488.077-.393.173.095.095-.062.337-.348.539-.287.201-.52.476-.52.61 0 .265 1.458.184 1.736-.095.183-.183.354-1.752.192-1.752-.056 0-.1.118-.1.262zM83.76.82c.177.18.388.26.468.179.08-.08-.064-.227-.322-.326-.372-.142-.402-.112-.146.147zm-4.3 1.108c-.717.357-.985.937-.378.82a7.74 7.74 0 01.71-.105c.149-.012.288-.257.31-.545.021-.288.017-.51-.01-.492-.027.018-.311.163-.632.322zm2.15.694c-.089.145-.037.263.115.263a.27.27 0 00.277-.263c0-.144-.052-.262-.116-.262-.063 0-.187.118-.276.262zm-6.798.602c-.14.318-.312.529-.384.468-.306-.257-1.368.605-1.613 1.31-.146.42-.372.7-.501.62-.13-.081-.236.053-.236.297 0 .472-1.151 1.684-1.6 1.684-.526 0-.999.695-.686 1.009.526.527-.046.661-.63.147-.509-.448-.55-.453-.401-.042.188.517-.22.64-.432.131-.096-.23-.26-.172-.558.197-.394.49-.387.53.115.608.613.096.7.447.186.755-.192.115-.482.446-.645.734-.258.457-.296.466-.303.066-.012-.676-.401-.559-.758.228-.255.562-.248.662.042.55.195-.075.5.1.68.387.4.642.184.93-.357.478-.325-.27-.398-.263-.398.042 0 .205.14.514.313.687.243.244.157.314-.392.314-.706 0-1.013-.64-.405-.843.166-.055.247-.261.182-.459-.088-.264-.27-.196-.692.26-.638.686-.79 1.706-.222 1.487.253-.097.217.13-.13.814-.265.522-.483 1.101-.483 1.287 0 .186-.106.338-.235.338-.364 0-.737 1.368-.564 2.066.14.566.19.584.51.197.194-.235.457-.428.582-.428.326 0 .285.983-.05 1.19-.153.096-.215.339-.138.54.077.202.036.367-.092.367-.262 0-.647 1.431-.6 2.228.024.402 0 .42-.1.078-.07-.245-.38-.526-.684-.623-.5-.16-.513-.207-.126-.49.484-.356.33-1.572-.16-1.268-.427.265-1.215.285-1.215.031 0-.12-.235-.218-.523-.218-.287 0-.522-.106-.522-.235 0-.131-.391-.145-.892-.032-.75.17-.912.124-1.02-.29-.132-.505-1.222-.711-1.222-.231 0 .341-1.035.179-1.267-.199-.1-.16-.664-.286-1.254-.278-.59.009-1.505-.128-2.032-.302-.527-.175-1.257-.243-1.623-.15-.365.091-.818.038-1.007-.119-.456-.38-3.863-.378-4.572.003-.307.165-.498.46-.424.654.075.195-.04.5-.253.678-.312.26-.322.366-.05.536.207.13.006.19-.516.155-.787-.054-.842-.116-.697-.78.171-.785-.359-1.017-.882-.385-.159.192-.724.311-1.321.278-.786-.044-1.078.05-1.181.384-.076.245-.1.12-.053-.277.047-.396.013-.732-.075-.747-.833-.135-2.764-.267-3.857-.263-.968.003-1.39-.108-1.5-.394-.084-.22-.276-.322-.428-.227-.188.117-.175.292.043.555.175.212.21.364.077.339-.681-.13-1.17.04-.988.344.114.19-.01.163-.295-.066-.442-.353-.475-.35-.33.036.118.318.038.398-.308.307-.266-.07-.532.05-.62.278-.105.275-.034.355.226.256.208-.08.378-.014.378.148 0 .196.52.258 1.567.186 1.218-.084 1.567-.027 1.567.258 0 .201-.088.347-.196.324-.108-.023-.527.095-.931.262-.404.168-.833.305-.952.305-.118 0-.283.177-.366.393a.652.652 0 01-.561.393c-.226 0-.647.22-.935.49-.524.49-.524.491.076.66.574.162.579.182.101.464-.395.233-.563.206-.809-.132-.17-.234-.387-.348-.48-.255-.094.094-.17.034-.17-.134 0-.169.163-.306.364-.306.2 0 .43-.177.514-.394.082-.216.036-.393-.103-.393-.476 0-.25-.393.402-.696.431-.2.705-.214.814-.038.153.249.606-.201.616-.611.01-.43-.986-.375-1.263.07-.167.269-.456.489-.642.489-.955 0-2.576 1.352-2.143 1.787.09.09.268-.007.396-.215.128-.207.326-.284.44-.17.288.29.332 1.743.052 1.743-.127 0-.23-.227-.23-.505 0-.326-.21-.537-.588-.59-.393-.056-.562-.237-.511-.543.096-.572-.428-.608-.644-.044-.128.335-.202.348-.383.066-.184-.286-.271-.278-.48.044-.184.285-.143.417.151.481.35.077.34.162-.072.63-.47.532-.467.537.241.365.594-.145.718-.089.718.326 0 .275-.176.569-.391.652-.246.094-.392-.003-.392-.262 0-.26-.146-.357-.392-.263-.296.114-.395-.054-.408-.692-.015-.769-.038-.792-.253-.254-.13.324-.357.59-.506.59-.148 0-.271.265-.273.59-.003.476-.053.514-.257.196-.184-.286-.255-.3-.258-.05-.002.188-.121.27-.265.18-.143-.088-.26.041-.26.288 0 .42-.033.42-.507-.01-.605-.55-1.065-.35-.875.379.084.322.008.523-.199.523-.184 0-.258-.076-.165-.17.094-.094-.033-.32-.281-.502-.248-.182-.51-.239-.584-.126-.29.452-2.771 1.506-3.186 1.354-.391-.143-.37-.227.179-.717.35-.312.72-.455.847-.328.128.128.226-.173.226-.69 0-.99-.382-1.244-.602-.399-.123.473-.184.485-.686.131-.603-.424-1.067-.515-.854-.168.075.12-.05.486-.279.813-.293.42-.471.501-.609.277-.116-.19-.195-.037-.195.377 0 .76-.332 1.251-.51.753-.17-.477-.895-.08-.749.41.177.59-.49 1.402-1.07 1.304-.847-.145-.765.396.155 1.019l.896.605-.802.304c-.697.264-.818.458-.935 1.5-.074.658-.032 1.375.093 1.592.531.922.701 1.06 1.113.9.55-.211.31-.636-.36-.636-.603 0-.668-.59-.116-1.049.215-.18.392-.23.392-.113s.184-.016.41-.296c.39-.483.403-.465.268.343-.146.87.184 1.183.467.443.086-.226.276-.336.422-.246.146.09.374-.108.508-.442.133-.334.25-.514.259-.4.008.113.247.081.529-.07.324-.175.459-.443.367-.73-.104-.325-.008-.287.338.136.44.538.56.562 1.342.266.718-.272.897-.263 1.094.056.305.496.588.213.366-.366-.093-.246-.323-.387-.51-.316-.267.104-.28-.035-.063-.66.15-.436.42-.848.598-.917.186-.072.285-.45.233-.896-.05-.425.033-.773.182-.773.15 0 .199.118.11.262-.318.517.184.249.922-.492.414-.415.687-.82.607-.9-.08-.08.101-.08.4-.002.356.094.602-.003.706-.276.137-.359.23-.335.647.167.392.471.49.502.496.155.01-.53.782-.863 1.15-.495.185.186.165.27-.063.27-.183 0-.51.179-.726.396-.217.218-.494.334-.616.259-.469-.292-.564.96-.11 1.462.287.32.338.505.138.505-.175 0-.264.089-.198.197.065.108-.333.482-.886.83-.554.35-.943.738-.866.863.077.126-.176.148-.563.051-.607-.153-.682-.109-.55.317.184.587-.878 1.216-1.444.856-.637-.405-.934-.25-.805.425.087.457.293.654.682.651.465-.003.492-.05.165-.282-.26-.184-.275-.247-.046-.186.485.129.458.534-.057.856-.32.2-.495.174-.666-.102-.327-.526-1.306-.625-1.487-.15-.218.57-.59.481-.545-.13.022-.288.183-.494.359-.46.175.036.326-.023.336-.131.054-.625-.028-.751-.44-.672-.446.087-.488.18-.555 1.261-.022.348-.218.525-.583.525-.382 0-.504.12-.4.393.083.216.047.393-.08.393-.128 0-.291-.147-.364-.328-.084-.208-.139-.172-.152.1-.011.234.142.561.34.727.281.233.4.203.53-.137.091-.24.23-.373.309-.294.219.22-.498 1.243-.87 1.243-.181 0-.33-.158-.33-.35 0-.192-.22-.333-.49-.313-.595.044-1.384.785-1.13 1.06.101.11.008.14-.208.066-.215-.073-.604.054-.864.282-.411.36-.504.364-.71.03-.202-.33-.296-.32-.679.064-.346.347-.377.526-.138.814.24.29.18.532-.275 1.128-.32.417-.651.817-.739.889-.087.072-.234.337-.327.59-.093.252-.33.458-.527.458-.475 0-1.055 1.237-.644 1.374.18.06.055.42-.324.936-.438.594-.676.742-.82.509-.115-.188-.062-.385.124-.46.179-.072.323-.367.32-.655-.008-1.128.727-2.469 1.504-2.74.543-.19.717-.388.603-.686-.088-.23-.16-.533-.16-.674 0-.14-.12-.181-.268-.09-.147.092-.236.364-.196.605.054.33-.103.427-.632.388-.498-.037-.753.098-.867.458-.089.281-.275.511-.413.511-.138 0-.33.206-.425.459-.241.64-.855 1.245-.855.843 0-.17.371-.78.825-1.354.622-.789.742-1.097.488-1.255-.248-.153-.19-.256.217-.385.305-.097.662-.11.794-.029.131.082.175-.099.096-.401-.12-.456-.28-.523-.938-.39-.964.193-1.552.7-2.608 2.25-.443.649-.938 1.297-1.1 1.442-.162.144-.677.762-1.145 1.375-.695.911-.818 1.258-.674 1.915.207.947 1.042.989 1.042.052 0-.319.104-.572.232-.562.127.009.331-.14.453-.333.147-.233.222-.064.225.505.002.47-.13 1.071-.294 1.334-.214.345-.22.619-.017.98.228.407.303.428.403.107.433-1.384.39-1.34 1.006-.989.881.505 1.252.904 1.048 1.131-.101.113-.036.12.143.016.18-.103.326-.308.326-.454 0-.3.653-1.014.928-1.014.1 0 .035.177-.144.393-.179.216-.239.393-.133.393.106 0 .003.29-.229.646-.232.356-.422.827-.422 1.049 0 .221-.117.402-.26.402-.144 0-.264-.265-.266-.59-.002-.324-.113-.762-.246-.974-.194-.307-.297-.239-.518.345-.152.401-.277.903-.277 1.116 0 .212-.241.862-.537 1.444-.44.865-.605 1.001-.91.747-.32-.266-.302-.4.122-.942.582-.743.385-2.01-.336-2.15-.359-.07-.416.044-.285.565.128.511.045.69-.382.825-.3.096-.544.32-.544.5s-.353.588-.784.908c-.558.414-.783.8-.783 1.344 0 .42-.118.836-.261.925-.144.09-.261.627-.261 1.196 0 .568.117 1.033.26 1.033.144 0 .262-.192.262-.425 0-.349.07-.367.392-.1.5.417.494.721-.024 1.241-.354.356-.454.363-.678.047-.213-.302-.237-.291-.127.057.074.235.003.559-.158.72-.216.218-.211.295.02.295.173 0 .314-.128.314-.284 0-.156.147-.23.326-.164.18.066.297.253.261.415-.035.162.14.303.392.313.382.014.367.061-.092.284-.344.168-.556.528-.567.966-.01.384-.08 1.583-.156 2.664-.184 2.617-.114 2.803 1.012 2.67.755-.087.912-.022.909.382-.003.38-.054.407-.233.124-.168-.266-.276-.146-.408.456-.23 1.052-.597 1.287-.56.359.025-.6-.09-.728-.717-.8-.533-.061-.71.014-.62.262.07.192.267.316.44.276.172-.04.238.049.147.197a.637.637 0 01-.489.268c-.205 0-.319.382-.31 1.048.006.576.087 1.048.18 1.049.091 0 .24.295.33.656.158.63.677.932.677.393 0-.144.11-.262.244-.262.28 0 .672 1.02.58 1.507-.035.18.06.328.21.328s.272.236.272.524c0 .288-.141.524-.314.524-.237 0-.235.079.011.326.258.259.373.247.56-.058.203-.329.261-.32.405.055.092.241.092.562-.001.713-.094.151-.016.278.172.28.188.004.065.22-.273.482l-.616.475.697.754c.574.622.738.687.937.37.133-.21.244-.454.246-.543.002-.088.268-.133.591-.099l.914.095c.18.019.327.159.327.311 0 .153-.13.198-.287.1-.202-.125-.2-.013.009.378.335.628.675.709.97.23.202-.329.646 1.015.646 1.959 0 .25.13.534.29.633.186.115.23.024.122-.257-.12-.316-.025-.437.347-.437.283 0 .514.108.514.24 0 .242.679 1.112 1.763 2.26.323.342.588.758.588.924 0 .166.176.235.391.151.232-.089.392-.002.392.213 0 .2.147.423.327.496.258.105.257.182-.01.37-.184.131-.259.435-.167.676.231.605.634.55.634-.087 0-.288.117-.524.26-.524.4 0 .312-.558-.17-1.093-.238-.264-.304-.48-.146-.48.157 0 .364.126.458.28.095.154.352.211.571.127.22-.085.561-.018.76.147.304.254.289.361-.098.677-.334.272-.37.412-.134.511.18.075.327.34.327.587 0 .247.14.591.313.764.244.245.186.315-.261.315-.316 0-.575-.118-.575-.262 0-.144-.235-.262-.522-.262-.287 0-.522.118-.522.262 0 .144.126.262.28.262.154 0 .457.178.674.395.216.218.493.335.615.259.122-.076.298.106.393.404.133.422.25.477.525.247.195-.162.29-.463.212-.669-.182-.474.161-.466.8.02.272.206.595.314.718.238.122-.076.224.075.226.336.003.344.063.382.217.138.164-.26.366-.213.896.205.472.373.887.49 1.336.377.802-.202 1.432.103.905.438-.282.18-.285.226-.012.23.188.002.274.113.191.247a.285.285 0 00.088.392c.284.176.62-.58.409-.921-.081-.132-.013-.239.15-.239.195 0 .238.272.125.787-.108.494-.067.786.11.786a.278.278 0 00.282-.271c0-.183.173-.179.53.013.291.156.46.397.375.535-.085.138.059.33.32.426.26.096.57.338.69.537.168.281.3.293.587.053.534-.445.456-1.172-.17-1.589-.51-.34-.493-.358.327-.334 1.19.036 1.966.315 2.14.77.08.212.356.375.612.363.273-.012.33-.075.139-.152a.564.564 0 01-.327-.482c0-.192-.146-.4-.326-.46-.257-.087-.253-.2.019-.53.193-.235.53-.35.76-.26.308.118.358.063.193-.213-.191-.318-.159-.32.218-.013.617.503.551 1.083-.124 1.083-.311 0-.478.088-.37.196a.79.79 0 00.489.197c.167 0 .31.507.334 1.18.022.648.057 1.213.077 1.254.06.125 1.548-1.466 1.837-1.966.257-.441.273-.44.28.035.005.277-.191.725-.435.996-.548.608-.689 1.343-.222 1.163.187-.072.651.032 1.033.23.38.2.866.296 1.077.214.21-.081.383-.032.383.11 0 .354 1.275.63 4.369.949.639.066.88-.031.997-.4.197-.627.7-.622 1.27.01.453.503.175 1.018-.368.681-.144-.089-.261-.05-.261.085 0 .341 1.24.548 2.275.38.525-.086.859-.292.859-.531 0-.303-.082-.323-.36-.091-.282.234-.388.193-.487-.19-.17-.653.734-1.252 1.247-.825.198.165.488.22.644.124.156-.097.455-.034.665.14.304.254.38.238.38-.08 0-.219-.206-.478-.457-.576-.416-.163-.404-.222.132-.661.399-.327.483-.522.261-.605-.184-.068-.003-.252.412-.417.407-.162.848-.229.98-.147.131.082.385.054.565-.062.18-.115.712-.345 1.184-.512.79-.277.845-.262.7.195-.091.29-.032.496.144.496.166 0 .25.148.19.328-.062.18-.395.288-.74.24-.492-.07-.562-.019-.319.232.235.244.577.253 1.42.038.611-.155 1.206-.224 1.323-.151.32.198.253.532-.115.573-1.09.12-2.725.283-3.003.297-.587.03-.343.54.26.544.476.004.513.053.197.259-.216.14-.715.256-1.11.258-.69.004-.91.25-.547.613.095.095.339.034.543-.136.269-.224.419-.229.55-.017.13.212.442.208 1.155-.016.953-.3 1.3-.684.65-.72-.18-.01-.092-.12.195-.244.804-.347.913-.308.922.327.008.544.036.554.353.135.189-.25.417-.38.507-.29.09.09.332.025.537-.146.606-.505 3.08.232 3.488 1.038.177.352.324.492.326.312.007-.572 1.26-.354 1.95.34.367.366.666.543.666.392 0-.481.39-.293.656.316.189.432.432.566.91.498.36-.051.716-.194.793-.318.17-.274 1.297-.012 1.297.301 0 .123-.193.15-.428.06-.296-.115-.386-.052-.293.204.073.203.265.34.427.304.162-.036.308.052.326.197.018.144.047.41.066.59.018.18.183.327.368.327s.42.132.522.292c.376.59 1.695.84 5.325 1.011 1.544.073 2.959.163 3.143.201.186.038.337-.108.337-.324 0-.217.117-.48.261-.586.479-.353.914-.207.914.308 0 .746.544.958.984.383.267-.349.418-.4.504-.17a.56.56 0 00.492.327c.456 0 .499-.783.044-.794-.192-.005-.148-.113.108-.263.273-.16.66-.163 1.044-.008l.61.245-.587.017c-.432.012-.587.174-.587.612 0 .516.143.602 1.066.639 1.113.044 1.09.088.582-1.158-.154-.377.325-.493 3.444-.831 1.293-.14 2.451-.157 2.574-.037.247.24-.85.951-1.268.822-.742-.228-1.18-.237-1.31-.024-.084.135-.411.114-.772-.05-.35-.16-.837-.196-1.1-.08-.261.113-.621.182-.8.153-.456-.073-.408.376.093.879.386.388.373.464-.17.936-.585.51-.419.664.381.356.227-.088.413-.309.413-.49 0-.383 1.82-.647 3.787-.55.718.035 1.526-.046 1.795-.182.27-.135.782-.278 1.14-.317.357-.04.74-.218.85-.396.155-.252.228-.245.326.032.07.197.204.286.3.199.3-.278-.108-.94-.77-1.242-.379-.173-.638-.513-.638-.837 0-.3-.104-.48-.231-.402-.128.079-.377-.032-.555-.247-.294-.356-.18-.502.33-.42.107.016.195-.075.195-.203 0-.272-1.636-.563-1.828-.323-.368.459-1.248.712-1.879.54-.737-.202-1.913-.15-3.836.167-.921.153-1.12.118-1.024-.177.076-.233.689-.428 1.667-.531.85-.09 2.193-.346 2.983-.57.79-.222 1.906-.459 2.48-.525.575-.067 1.398-.264 1.829-.438.43-.174 1.013-.362 1.293-.419.28-.056.901-.29 1.38-.517.48-.229 1.543-.591 2.363-.805.821-.215 1.604-.502 1.74-.639.137-.137.574-.249.971-.249.707 0 1.647-.335 3.744-1.337.574-.274 1.178-.499 1.343-.498.376 0 .643-.67.459-1.153-.078-.201-.012-.446.145-.543.157-.098.253-.037.213.134-.039.171.222.35.582.396.359.047.506.023.326-.052-.397-.166-.437-.879-.048-.879.153 0 .517.128.808.285.462.248.509.22.368-.228-.211-.666 1.042-1.59 1.511-1.114.225.227.17.256-.223.117-.44-.156-.468-.128-.178.18.293.312.439.258.967-.354.342-.396.863-.72 1.157-.72.294 0 .758-.225 1.031-.499.273-.274.737-.575 1.031-.669.294-.093.608-.4.697-.681.088-.281.388-.526.666-.544.843-.055.883-.074 1.683-.819.426-.396.923-.72 1.104-.72.181 0 .329-.178.329-.394 0-.216.147-.397.327-.402.435-.012 1.501-.919 1.501-1.278 0-.158.176-.286.392-.286.215 0 .392-.149.392-.33 0-.182.235-.478.522-.658.287-.18.522-.444.522-.587 0-.472-.613-.271-1.356.444-1.013.974-.92.651.151-.522.966-1.059 1.205-1.173 1.205-.575 0 .669.357.458 1.306-.773.348-.451.348-.48 0-.268a2.777 2.777 0 01-.852.311c-.403.063-.384-.049.157-.91.34-.54.87-1.02 1.179-1.066.308-.045.561-.252.561-.458 0-.206.117-.375.261-.375.143 0 .261-.177.261-.393 0-.217.171-.394.379-.394.27 0 .351-.227.28-.786-.069-.553.012-.786.274-.786.205 0 .373-.184.373-.41 0-.224.117-.335.261-.246.143.09.261.037.261-.115 0-.396.782-.346.789.05.003.18.214.057.467-.274.807-1.052.802-.345-.008 1.337-.43.893-.871 1.683-.979 1.755-.108.072-.394.518-.635.991-.242.474-.558.788-.702.698-.171-.106-.156-.292.043-.533.211-.255.217-.37.02-.37-.449 0-.812 1.685-.386 1.789.442.108.436.255-.027.72-.511.514-.671.47-.671-.18 0-.442-.379-.17-1.84 1.317-1.012 1.03-1.769 1.987-1.682 2.128.087.14.028.255-.13.255-.159 0-.931.65-1.717 1.446-1.371 1.387-1.413 1.47-1.032 2.052.218.334.317.686.221.783-.096.097.031.176.282.176.686 0 .356.585-.652 1.158l-.893.508.626-.694c.519-.577.569-.763.294-1.096-.182-.22-.25-.4-.15-.4s.005-.177-.21-.394c-.536-.538-.689-.495-.699.197-.01.737-.574 1.507-1.102 1.507-.22 0-.468.177-.551.393-.083.217-.33.394-.55.394-.361 0-.517.308-.431.852.017.108-.159.196-.391.196-.29 0-.381.16-.29.51.118.453.005.504-1.013.459-.631-.028-1.147-.072-1.147-.098-.001-.026.19-.238.422-.471.617-.62.359-.68-.697-.163-.51.25-1.064.408-1.231.352-.167-.056-.513.028-.77.186-.413.255-.392.283.186.243.359-.025.947.077 1.306.228.609.256.619.288.146.48-.32.128-.545.09-.609-.106-.162-.486-.657-.365-1.422.346-.387.36-.834.656-.992.656-.158 0-.215.118-.126.262.088.144.045.262-.097.262-.143 0-.31.265-.372.59l-.113.59-.036-.59c-.02-.325-.136-.59-.258-.59-.123 0-.519.265-.88.59-.36.324-.818.624-1.017.667-.618.133-2.16.904-2.511 1.257-.368.37.002.78.452.5.144-.089.261-.04.261.11 0 .261-1.944 1.332-2.418 1.332-.127 0-.383.154-.57.341-.278.28-.262.433.093.852.546.645 1.19.816.977.26-.113-.297.017-.404.49-.404.355 0 .645.094.645.21 0 .406-.633.838-1.228.838-.36 0-.6.158-.6.394 0 .216.1.393.22.393.46 0 1.913-.859 2.047-1.209.076-.2.412-.364.746-.364.333 0 .782-.177.997-.393.216-.216.6-.393.852-.393.43 0 .431.022.02.327-.4.297-.368.37.33.768.737.42.778.417.932-.07.154-.488.191-.49.918-.06.837.497 1.292.319.778-.304-.277-.334-.249-.4.171-.4.276 0 .614.097.75.215.139.12.504-.054.827-.393.404-.425.467-.608.209-.608-.204 0-.484.206-.624.457s-.348.362-.463.248c-.114-.115-.073-.292.091-.394.164-.102.378-.507.477-.901.098-.394.279-.655.401-.58.122.077.155.313.074.526-.102.267-.026.34.243.237.227-.087.339-.354.267-.632-.126-.483-.056-.537 2.221-1.728.599-.314.814-.578.704-.866-.087-.228-.078-.334.019-.236.098.098.516.003.928-.211.413-.214.751-.298.752-.186.001.112.234-.15.518-.583.284-.433.607-.791.717-.797.11-.006.594-.39 1.076-.852.99-.951 1.459-1.048 1.845-.383.146.252.272.34.278.197.007-.144.126-.085.265.13.204.317.254.276.257-.211.002-.336.121-.533.265-.444.144.09.262.047.262-.093s-.147-.316-.327-.388c-.197-.08-.147-.14.126-.153.463-.021.839-.962.681-1.703-.079-.365-.17-.37-.807-.036-.395.207-.733.324-.751.26a3.473 3.473 0 01-.065-.355.914.914 0 00-.228-.437c-.306-.307-.232-.546.171-.546.201 0 .306.157.233.349-.093.243.074.332.547.292.374-.03.681-.194.681-.362 0-.29-.93-.725-1.391-.65-.118.019-.136-.094-.038-.252.096-.158.334-.226.528-.151.207.08.424-.102.528-.44.171-.56 1.123-1.66 1.189-1.374.018.078.047.26.065.403.018.145.15.255.294.246.144-.009.235-.234.203-.5-.066-.556.672-.938 1.061-.547.379.38-1.009 1.62-1.571 1.403-.29-.112-.369-.066-.243.14.117.19.01.308-.283.31-.401.004-.413.044-.081.26.215.139.261.255.102.257-.167.002-.239.277-.169.645.121.635.13.637.943.196 1.297-.703 1.886-1.19 2.086-1.728.177-.475.215-.47.831.111.356.335.647.485.647.334 0-.152-.265-.457-.588-.677l-.588-.4 1.132-1.104c.878-.857 1.2-1.033 1.436-.786.234.244.169.41-.283.718-.547.373-.874 1.07-.348.743.131-.081.298 0 .371.181.086.215.139.185.153-.089.011-.23.255-.631.543-.892.659-.6.664-.918.015-.918-.669 0-.831-.312-.38-.73.201-.187.365-.26.365-.165s.155.043.345-.115c.253-.21.442-.202.706.034.299.267.307.25.048-.096-.171-.23-.244-.486-.161-.569.083-.083-.094-.283-.394-.444-.299-.16-.535-.436-.524-.61.016-.241.053-.239.152.008.073.18.314.328.536.328.317 0 .372-.2.255-.923-.082-.508-.068-.876.031-.818.1.059.458.001.798-.127.502-.19.595-.38.502-1.018-.102-.697-.04-.784.558-.788.841-.006 1.66-.858 2.575-2.678.391-.775 1.319-2.032 2.065-2.791.811-.827 1.298-1.532 1.213-1.756-.079-.205.007-.373.191-.373.204 0 .109-.242-.242-.616-.608-.65-.486-.93.568-1.308.26-.093.401-.287.312-.43-.09-.147.006-.198.219-.115.208.08.451.028.539-.116.089-.143-.077-.337-.369-.43-.291-.093-.479-.25-.418-.35.062-.1-.171-.317-.518-.481-.658-.312-.629-.346-.738.89-.016.177-.217.511-.448.742-.384.386-.413.335-.344-.626.04-.576.201-1.286.357-1.578.187-.35.194-.586.021-.693-.446-.277-.289-1.148.26-1.443.434-.233.523-.199.523.201 0 .264-.147.63-.327.811-.262.265-.223.296.196.159.385-.127.428-.104.162.086a.46.46 0 00.264.84c.397 0 1.012-.697.802-.907-.245-.247-.248-.762-.005-.937.108-.078.023-.475-.187-.882-.473-.916-.474-.962-.008-.782.291.111.352-.047.269-.7-.137-1.086-.25-1.18-1.009-.832-.546.25-.647.214-.774-.274-.188-.721-.022-.876.486-.453.223.186.431.29.463.235.848-1.479.903-1.807.305-1.807-.224 0-.334-.118-.246-.263.228-.37-.484-.326-.861.053-.244.244-.314.18-.314-.29 0-.44.111-.562.408-.448.555.214.404-.899-.182-1.34-.234-.176-.504-.737-.599-1.245-.095-.508-.256-.932-.357-.943-.101-.01-.455-.07-.787-.132-.429-.08-.549-.018-.416.216.11.19.089.237-.049.11-.131-.12-.252-.327-.27-.459a87.841 87.841 0 01-.066-.493c-.018-.14-.451-.005-.963.297-1.058.628-1.687.375-1.193-.478.154-.266.283-.336.288-.156.004.18.172.328.374.328.248 0 .357-.292.34-.91-.039-1.384.498-1.537.944-.27.056.157.261.123.513-.086.493-.408.257-1.284-.592-2.198-.574-.619-.674-.993-.266-.993.144 0 .262.099.262.219s.181.218.402.218c.227 0 .368-.181.323-.415-.053-.276-.381-.423-.981-.441-1.285-.037-1.886.166-1.726.585.075.197.01.359-.146.359s-.222-.236-.147-.525c.075-.288.02-.524-.122-.524s-.206-.148-.141-.328c.064-.18.015-.526-.109-.768-.256-.5.448-.865 1.147-.596.556.214.834-.34.422-.839-.226-.272-.317-1.041-.272-2.282.037-1.03.075-2.133.084-2.452.009-.319-.171-.768-.4-.998-.381-.383-.403-.345-.255.45.088.476.159.925.158.997-.02.798-.104 1.056-.302.933-.13-.08-.179-.366-.11-.635.077-.292-.038-.551-.285-.646-.227-.088-.413-.314-.413-.503 0-.19-.382-.49-.849-.667-.733-.278-.893-.262-1.175.124-.304.416-.352.412-.71-.063-.572-.759-.487-.902.449-.762.467.07.702.058.522-.028a.62.62 0 01-.326-.508c0-.194-.265-.567-.588-.83-.368-.298-.557-.699-.504-1.067.046-.325-.013-.604-.13-.62-1.634-.228-1.805-.165-1.682.62.046.291-.435.238-.624-.07-.091-.147-.274-.199-.408-.116-.133.083-.243.012-.243-.157 0-.17-.215-.252-.481-.182-.547.143-1.155-.629-.939-1.193.076-.198-.042-.511-.263-.695-.334-.278-.51-.23-1.052.285-.69.657-.862 1.276-.355 1.276.167 0 .25.055.183.122s-.469.03-.892-.084c-.694-.187-.772-.317-.787-1.302-.018-1.167.119-1.282.922-.778.279.175.593.23.699.125.358-.36-.665-1.058-1.581-1.078-.72-.016-.944-.145-1.061-.61-.081-.324-.303-.59-.491-.59-.538 0-.715.312-.396.697.363.44.409.444-1.471-.156-.862-.275-1.537-.627-1.501-.783.035-.155-.053-.282-.196-.282-.144 0-.261.177-.261.393 0 .533-.52.497-.929-.065-.234-.321-.253-.556-.063-.786.207-.25.092-.333-.478-.348-1.26-.033-1.832-.203-3.443-1.025-1.592-.812-2.4-.99-2.4-.528 0 .144.19.262.422.262.479 0 2.486 1.045 2.768 1.442.268.376-1.126.698-1.539.354-.186-.155-.514-.214-.73-.131-.235.09-.507-.068-.684-.4-.233-.436-.339-.475-.515-.189-.177.288-.288.295-.546.036-.247-.247-.25-.326-.011-.326.172 0 .313-.193.313-.429 0-.357-.196-.401-1.175-.267-.647.09-1.175.072-1.175-.038 0-.11-.318-.226-.707-.259-.389-.032-.83-.183-.98-.335-.19-.195.175-.24 1.23-.15 1.645.14 1.968-.142.679-.593-1.274-.446-2.264-.357-2.633.236-.352.566-2.116.757-2.42.262-.09-.144.08-.262.376-.262.295 0 .537-.118.537-.262 0-.43-.793-.299-1.74.29-.609.377-.845.69-.75.99.105.333-.036.453-.579.491-.66.047-.68.022-.245-.31.614-.47.195-.717-.858-.505-.593.119-.8.287-.721.588.082.315-.079.422-.632.422-.409 0-.742-.088-.742-.196 0-.108.235-.197.522-.197.287 0 .522-.118.522-.262 0-.144-.169-.262-.376-.262s-.449.118-.538.262c-.088.144-.507.262-.93.262-.542 0-.767.128-.767.437 0 .595-.35.206-.397-.442-.021-.286.09-.521.245-.523.195-.003.193-.064-.009-.197-.16-.106-.371-.45-.47-.765-.201-.652-.435-.672-3.286-.294-1.078.143-2.145.426-2.372.63-.227.203-.492.29-.588.194-.096-.097-.174.073-.174.376 0 .698-.5 1.027-.838.552-.195-.275-.22-.246-.1.119.084.264.154.578.154.696 0 .12.254.15.563.069.386-.102.505-.053.377.155-.103.167-.562.294-1.02.283-.459-.011-.687-.08-.507-.153.18-.073.326-.256.326-.408 0-.182-.422-.21-1.24-.08-.683.108-1.57.231-1.971.273-1.184.123-2.063.394-2.644.814-.514.373-.494.385.37.23 1.904-.341 2.364-.324 2.639.101.243.376.258.372.132-.035-.113-.364.005-.453.568-.429.442.02.537.076.253.15-.536.14-.578.38-.144.816.244.245.2.316-.196.323-.596.01-1.476.618-1.367.945.04.124-.01.261-.115.304-.104.043-.516.25-.914.462-.674.357-.76.342-1.247-.213-.287-.328-.757-.572-1.044-.542-.398.041-.414.022-.07-.08.433-.129.51-.922.13-1.306-.095-.094-.03-.421.144-.727.173-.306.327-.673.34-.817.014-.145.122-.612.24-1.04.178-.645.243-.695.383-.293.147.42.33.325 1.39-.725.672-.665 1.471-1.742 1.777-2.394.518-1.107 1.003-1.68.658-.778-.089.234-.045.339.103.247.142-.088.258-.33.258-.538 0-.208.105-.348.233-.312.435.122 1.334-1.191 1.334-1.949 0-.811.692-1.31 1.038-.748.156.252.248.255.395.015.106-.172.062-.444-.098-.605-.365-.367-.388-1.589-.025-1.364.146.091.198.275.115.41-.082.133.063.257.323.273.956.061 1.504-.092 1.805-.505.17-.232.585-.437.924-.454.967-.05 1.73-.367 1.889-.785.08-.21.036-.383-.098-.383-.135 0-.177-.177-.095-.393.098-.256-.007-.393-.3-.393-.304 0-.41.152-.327.471.084.321-.03.483-.361.508-.615.046-.617-.253-.007-.808.521-.473 2.008-.589 2.261-.177.088.141.038.483-.11.759-.2.375-.17.584.12.824.313.262.386.242.386-.104 0-.233.122-.425.27-.425.15 0 .238-.303.197-.674-.064-.575.076-.728.952-1.035.565-.197 1.12-.302 1.233-.232.112.07.284-.202.38-.604.095-.402.302-.894.459-1.093.237-.3.13-.326-.624-.153-.5.115-1.16.191-1.469.17-.307-.021-.704.136-.88.35-.177.213-.444.388-.595.388-.15 0-.496.201-.767.448-.417.378-.53.39-.722.078-.125-.204-.168-.467-.095-.586.073-.118.036-.199-.083-.178-.537.094-1.129-.046-1.129-.268 0-.133.206-.296.457-.362.435-.114.435-.122 0-.15-.251-.017-.457-.163-.457-.325 0-.212-.104-.208-.368.013-.27.223-.418.227-.549.014-.226-.368.612-1.024 1.322-1.035.294-.005.679-.153.855-.33.248-.249.431-.25.815-.01.422.264.641.174 1.495-.615l1-.925-.783.185c-.431.103-.982.288-1.224.412-.661.34-.735.29-.735-.502 0-.694-.05-.723-1.067-.626-.587.056-1.198-.029-1.358-.19-.442-.442-1.244-.368-1.065.1.188.492-.664.86-.943.406-.154-.25-.331-.257-.757-.029-.305.165-.555.221-.555.127 0-.095-.16-.04-.356.124-.288.24-.332.17-.23-.361.172-.908-.667-.807-1.074.128-.094.217-.117.098-.05-.264.173-.936-.198-1.441-.518-.707zm1.967.185c0 .144.117.262.26.262a.262.262 0 000-.524.262.262 0 00-.26.262zm7.152.148c.12.315.035.372-.364.245-.358-.115-.52-.047-.52.217 0 .618.62.68 1.3.128.52-.423.564-.554.252-.752-.57-.363-.844-.296-.668.162zm-9.764 1.687c0 .144-.052.262-.115.262-.064 0-.188-.118-.277-.262-.089-.144-.037-.262.115-.262a.27.27 0 01.277.262zm10.707.34l-.653.275.61.107c.663.116.933-.025.789-.412-.057-.15-.349-.138-.746.03zM73.09 7.4c-.215.403-.198.584.07.755.282.179.268.225-.067.229-.319.002-.422-.253-.422-1.047 0-.85.067-.995.35-.76.266.221.283.422.07.823zm5.495-.752c-.06.053-.403.236-.762.408-.615.294-.624.289-.146-.096.416-.334 1.266-.627.908-.312zm-6.246.575c0 .225-.12.335-.265.244-.146-.09-.198-.274-.115-.408.223-.364.38-.296.38.164zm-1.477 1.569c-.085.223-.21.348-.279.28-.068-.069-.047-.251.048-.405.257-.418.408-.337.231.125zm9.312 3.134c0 .042-.177.143-.392.226-.236.091-.392.002-.392-.226 0-.227.156-.316.392-.226.215.083.392.185.392.226zm-5.569 2.966c-.322.064-.423.236-.311.53.13.342.096.368-.153.12-.396-.395.177-1.226.643-.932.193.122.13.22-.179.282zm1.129 1.098a.27.27 0 01-.277.262c-.152 0-.204-.118-.115-.262.089-.145.213-.262.277-.262.063 0 .115.117.115.262zm-23.308 2.27c.18.073.474.073.653 0 .18-.072.033-.132-.326-.132-.36 0-.506.06-.327.132zm-12.992 1.356c0 .12-.176.218-.392.218-.215 0-.392-.098-.392-.218s.177-.219.392-.219c.216 0 .392.099.392.219zm-1.306.961c.181.22.21.393.064.393-.144 0-.407-.177-.586-.393-.181-.22-.21-.393-.064-.393.143 0 .407.177.586.393zm-9.759.27c-.598.438-.53.664.162.534.323-.06.676-.118.783-.13.108-.01.196-.176.196-.368 0-.434-.574-.453-1.14-.037zm2.193-.15c-.211.135-.308.321-.215.414.228.23 1.252-.115 1.252-.42 0-.312-.54-.309-1.037.007zm26.5.151a27.3 27.3 0 001.746.238c.386.033.96.232 1.273.441.541.361.518.376-.455.283-.712-.069-1.132.029-1.37.317-.39.47-1.064.558-1.064.139 0-.153.094-.22.209-.149.114.071.378.021.587-.111.282-.18.178-.247-.404-.263-1.973-.053-3.711.001-4.31.136-.358.08-2.12.156-3.916.169-4.134.029-4.44.013-4.44-.226 0-.108.264-.217.588-.243.323-.025 1.234-.187 2.024-.36.79-.171 1.876-.336 2.414-.366.538-.03 1.034-.11 1.102-.18.173-.173 4.742-.04 6.016.175zm26.115.406c0 .404-1.1.574-1.328.205-.077-.125.044-.227.268-.227.224 0 .407-.127.407-.284 0-.156.147-.234.326-.174.18.06.327.276.327.48zm9.401-.284c-.089.144-.037.262.115.262a.27.27 0 00.277-.262c0-.144-.052-.262-.115-.262-.064 0-.188.118-.277.262zm8.618.525c-.089.144.029.262.261.262.233 0 .35-.118.262-.262-.089-.145-.207-.263-.262-.263-.054 0-.172.118-.261.263zm-39.042.262c.335.217.325.255-.065.258a9.637 9.637 0 00-.647.024c-.104.01-.23-.108-.282-.263-.117-.35.468-.36.994-.02zm18.672 0c-.713.307-.914.307-.914 0 0-.145.324-.254.719-.244.636.016.658.044.195.244zm-1.88.814c-.293.588-.464.719-.616.471-.116-.188-.16-.426-.098-.527.063-.102-.15-.121-.474-.043-.402.098-.505.057-.327-.13.245-.256.914-.485 1.612-.555.21-.02.18.226-.097.784zm-13.397.103c-.355.43-.642.538-.406.153.082-.131 0-.299-.18-.372-.18-.073-.05-.142.291-.153.522-.018.569.041.295.372zm-21.676.131c0 .144-.051.262-.115.262-.063 0-.188-.118-.276-.262-.09-.144-.037-.262.115-.262a.27.27 0 01.276.262zm38.65.131a.394.394 0 01-.39.393.394.394 0 010-.786c.215 0 .39.177.39.393zm14.756-.13c.089.143.037.261-.115.261a.27.27 0 01-.277-.262c0-.144.052-.262.115-.262.064 0 .188.118.277.262zm-53.552 1.41c-.185.743-.753.92-.987.306-.088-.23.055-.443.363-.541.28-.09.51-.292.51-.45 0-.16.064-.224.143-.145.078.08.066.453-.029.83zm1.06-.362c-.088.144-.271.262-.407.262-.135 0-.245-.118-.245-.262 0-.144.183-.262.407-.262.224 0 .334.118.245.262zm8.337-.033c.078.126-.148.23-.502.23s-.58-.104-.502-.23c.078-.126.304-.23.502-.23.199 0 .424.104.502.23zm34.623.033c0 .144-.183.262-.407.262-.224 0-.335-.118-.246-.262.089-.144.272-.262.407-.262.135 0 .246.118.246.262zm-64.44.173c-.515.21-.38.585.197.541.287-.022.522-.191.522-.377 0-.35-.165-.388-.718-.164zm18.314.666c-.264.428-.566.19-.429-.337.104-.398.199-.455.35-.21.114.186.15.432.079.547zm5.283-.532c.127.206.047.251-.246.139-.239-.092-.434-.053-.434.086 0 .14-.132.254-.293.254-.203 0-.193-.121.032-.393.39-.472.687-.5.941-.087zm39.668-.045c-.089.144-.478.26-.864.258-.55-.003-.618-.06-.311-.258.516-.335 1.38-.335 1.175 0zm-50.794.262c-.216.14-.568.254-.784.254-.348 0-.348-.028 0-.254.216-.14.568-.254.784-.254.348 0 .348.028 0 .254zm4.178.262c0 .144-.323.26-.718.259-.56-.004-.632-.06-.326-.259.51-.331 1.044-.331 1.044 0zm5.027-.088c-.18.072-.473.072-.652 0-.18-.073-.033-.133.326-.133s.506.06.326.133zm31.273-.064c0 .06.072.296.159.524.229.6-.5.525-1.073-.11-.461-.511-.456-.524.22-.524.382 0 .694.05.694.11zm-54.32.481c0 .156-.073.208-.164.117-.258-.259-1.141.316-1.141.743 0 .486.367.494.762.017.167-.203.607-.444.977-.538.68-.171.656-.46-.05-.565-.21-.03-.383.07-.383.226zm10.605.649c-.266.266-.485-.135-.267-.489.164-.267.226-.267.314 0 .06.181.04.402-.047.489zm4.907-.27c-.255.188-.691.34-.969.34-.384 0-.437-.08-.222-.34.155-.187.59-.34.968-.34.628 0 .647.029.223.34zm31.237.207c-.177.214-.44.318-.582.23-.158-.099-.12-.25.095-.387.563-.358.84-.27.487.157zm-7.595.598c.25.268.014.301-1.206.172-2.176-.232-2.7-.659-.703-.573.88.037 1.738.218 1.91.4zm13.024.031c.073.22.004.292-.171.183-.18-.112-.238-.038-.15.192.08.208-.053.449-.301.544-.56.216-.818-.02-.438-.402a.694.694 0 00.14-.677c-.103-.27-.004-.36.326-.296.26.05.527.256.594.456zm24.862-.152c.503.031 1.208.228 1.567.437s.737.356.84.327c.103-.029.514.077.914.235a8.84 8.84 0 001.641.42c.503.072.986.246 1.074.386.088.14.234.249.325.24.582-.057 1.802.366 1.916.664.075.195.417.356.761.356.344 0 .625.12.625.267 0 .147.264.2.588.119.323-.081.806.013 1.073.21.47.345.47.373.012.833-.303.304-.51.368-.574.177-.054-.164-.206-.232-.338-.15-.131.08-.239.022-.239-.13 0-.153-.18-.278-.401-.278-.22 0-.709-.203-1.087-.451-.93-.612-3.061-1.384-4.649-1.684-.718-.135-1.482-.323-1.697-.418-.216-.094-.921-.21-1.567-.258a179.71 179.71 0 01-2.481-.206c-3.138-.287-7.96-.344-9.401-.112l-2.481.4c-.503.08-1.09.215-1.306.298-.588.227-1.006.293-2.325.367-.66.037-1.269.166-1.351.287-.083.12-.553.265-1.045.32-.492.056-1.734.332-2.76.615-1.076.296-2.013.423-2.213.299-.197-.123-.42-.098-.514.057-.093.15-.227-.033-.297-.407-.11-.57-.034-.68.465-.68.327 0 .634-.117.682-.26.048-.143.703-.29 1.456-.327.753-.038 1.37-.137 1.371-.22.001-.085.149-.17.328-.188.18-.02 1.972-.34 3.983-.712 2.243-.416 4.565-.675 6.007-.67 1.292.003 3.055-.086 3.917-.198 1.359-.177 3.972-.165 7.181.035zm-28.856.183c.19.307 1.174.353 1.174.055 0-.113-.3-.23-.667-.26-.387-.032-.6.054-.507.205zm-39.826.114c0 .063-.118.188-.262.277-.143.09-.26.037-.26-.115 0-.153.117-.278.26-.278.144 0 .262.052.262.116zm32.98.625c.319.265.423.263.536-.009.107-.26.221-.239.489.09.192.235.581.472.865.526.294.057.551.35.599.684.082.58.075.581-.717.129-.44-.252-.8-.552-.801-.67 0-.116-.09-.157-.198-.09-.107.066-.724-.162-1.37-.507-.953-.508-1.045-.614-.487-.555.38.04.868.221 1.085.402zm8.804.423c0 .064-.118.189-.261.278-.144.089-.261.037-.261-.116 0-.152.117-.277.26-.277.144 0 .262.052.262.115zm39.956.278c0 .216.118.393.261.393.144 0 .261-.177.261-.393 0-.216-.117-.393-.261-.393-.143 0-.261.177-.261.393zm-84.613.67c0 .105-.176.26-.392.342-.224.087-.392.006-.392-.19 0-.188.177-.342.392-.342.216 0 .392.086.392.19zm17.628-.015c.088.144-.03.262-.261.262-.233 0-.35-.118-.262-.262.09-.144.207-.262.261-.262.055 0 .173.118.262.262zm16.583 0c0 .311-.454.311-1.175 0-.438-.189-.385-.228.326-.244.467-.01.849.1.849.244zm-18.82.459c.17.292.341.36.47.188.231-.314.722-.341 1.005-.057.108.108.44.217.74.24.3.025-.161.113-1.023.197-.862.084-1.825.11-2.14.06-.49-.08-.528-.164-.263-.59.386-.62.86-.636 1.21-.038zm20.126.066c0 .144-.11.262-.246.262s-.319-.118-.407-.262c-.09-.145.022-.263.245-.263.224 0 .407.118.407.262zm2.089-.147c0 .064-.118.188-.261.278-.144.089-.262.037-.262-.116s.118-.278.262-.278c.143 0 .26.052.26.116zm-47.316.57c.15-.094.326-.08.39.031.182.308-1.33 1.684-1.517 1.381-.09-.144-.05-.263.086-.263.285 0 .644-.795.448-.992-.072-.072-.339.031-.594.23-.382.297-.375.256.04-.231.342-.403.562-.496.689-.29.102.166.308.226.458.133zm45.88.868c2.143.94 3.003 1.343 3.003 1.41 0 .042-.399.077-.886.077-.57 0-.844-.11-.769-.307.159-.413-.735-.735-.972-.35a.352.352 0 01-.482.122c-.162-.1-.224-.297-.138-.437.096-.157-.119-.185-.557-.075-.521.131-.661.095-.52-.134.131-.214-.002-.297-.419-.26-1.114.1-1.525-.022-1.525-.452 0-.352.07-.368.398-.094.219.183.474.256.566.164.092-.093.03-.17-.137-.17-.168 0-.305-.103-.305-.23 0-.213 1.489.187 2.742.736zm1.977-.648c.113-.07.28-.007.371.14.091.148-.019.34-.243.426-.578.223-1.63-.087-1.798-.529-.115-.3.012-.327.66-.14.443.127.897.173 1.01.103zm-42.848.274c-.449.258-.52.378-.227.384.233.005.57-.168.75-.384.397-.481.315-.481-.523 0zm95.892.524c.059.505.013.918-.102.918-.114 0-.208-.125-.208-.278 0-.152-.13-.197-.288-.1-.201.126-.212.033-.035-.311.139-.27.199-.638.135-.819-.064-.18-.002-.327.137-.327.14 0 .303.413.361.917zm-50.02.38c.76.33 1 .782.61 1.15-.246.232-.35.23-.438-.008-.063-.172-.285-.247-.493-.167-.272.105-.33.02-.204-.308.149-.389.096-.411-.373-.16-.36.194-.602.204-.708.032-.09-.145-.037-.263.114-.263.153 0 .277-.177.277-.394 0-.216-.117-.393-.261-.393-.144 0-.261-.132-.261-.294 0-.178.232-.125.587.134.324.235.841.537 1.15.67zm-48.483-.649c0 .069-.382.312-.85.54l-.848.416.653-.534c.629-.514 1.045-.682 1.045-.422zm25.955.288c.087.227.032.649-.122.938-.254.476-.23.498.262.234.298-.16.542-.205.542-.099 0 .106.141.051.313-.122.425-.426.868-.401.512.029-.212.256-.154.454.23.784.281.242.521.707.533 1.033.01.325.072.468.135.315.112-.27 4.277-.259 5.015.014.187.07.269.01.18-.133-.087-.143-.034-.26.118-.26s.276.293.276.651c0 .478.176.695.666.818.858.216.995.057.488-.57-.225-.278-.334-.357-.244-.177.091.18.041.327-.11.327-.153 0-.277-.192-.277-.426 0-.355.223-.405 1.329-.299 1.284.124 1.325.107 1.211-.49-.136-.718.211-.85.394-.15.072.277.592.618 1.27.833.633.2 1.278.46 1.434.577.157.117.37.13.471.027.102-.103.1.04-.006.316-.106.277-.235.374-.288.217-.052-.158-.325-.226-.606-.153-.281.074-.668.004-.86-.156-.193-.16-.433-.207-.535-.104-.103.102-.282.031-.399-.158-.174-.284-.31-.283-.769.005-.86.54-.662.812.453.622.785-.133 1.045-.08 1.167.24.086.225.367.41.624.41.258 0 .615.236.794.524.18.289.56.525.847.525.286 0 .52.162.52.36 0 .202.266.36.605.36.447 0 .6-.144.587-.557-.013-.426.121-.542.575-.493.522.055.571-.022.417-.656-.097-.395-.288-.792-.424-.882-.388-.255.174-.488.575-.239.194.12.286.393.204.606-.081.213.022.714.228 1.114.475.92.344 1.042-.73.683l-.862-.289.616.52c.36.304.553.684.465.914-.089.231-.004.394.205.394.195 0 .417.16.492.356.188.493 1.225.744 1.225.296a.539.539 0 00-.326-.468c-.184-.069-.012-.248.392-.409.394-.158.718-.404.718-.547 0-.143.176-.193.391-.11.572.22.48.57-.175.667-.312.046-.612.221-.668.39-.108.329.743.298 1.607-.059.386-.16.468-.116.352.184-.086.226.062.525.347.704.303.19.496.208.496.046 0-.145.176-.264.392-.264.215 0 .392.126.392.28 0 .307 1.08.058 1.313-.303.18-.279 1.882-.394 2.27-.153.167.104.477-.072.708-.402l.41-.587v.689c0 .56.097.663.522.552.624-.164.672-.49.117-.801-.335-.19-.29-.28.261-.532.55-.252.666-.237.666.083 0 .213.147.397.326.408.26.017.26.048.003.153-.552.223.13 1.193.71 1.008.39-.124.457-.048.344.385-.108.416-.044.502.283.376.572-.22.534-.516-.19-1.501-.96-1.303-1.03-1.49-.55-1.49.242 0 .38.146.31.329-.07.181.023.468.204.638.26.244.37.132.524-.525.144-.623.225-.71.315-.346.1.401.288.462 1.055.337.513-.084 1.024-.3 1.136-.482.111-.18.286-.245.389-.142.102.102.342.056.533-.103.19-.159.5-.23.688-.158.187.072.563-.032.836-.232s.878-.365 1.345-.365c.467 0 .927-.128 1.024-.284.126-.206.255-.206.46 0 .327.328 1.746.389 1.746.074 0-.116.647-.139 1.438-.051.791.087 1.58.071 1.75-.035.172-.106.43-.12.574-.03.144.088.595.198 1.001.243.62.068.685.022.404-.284-.185-.2-.424-.31-.532-.245-.108.066-.196-.006-.196-.159 0-.152.193-.277.429-.277.235 0 .561-.183.725-.408.355-.487 1.228-.24 1.025.29-.076.2-.26.337-.408.306-.148-.031-.323.092-.39.274-.136.373 1.099.964 2.602 1.247.654.123.98.088.98-.107 0-.16-.186-.291-.412-.291-.243 0-.376-.179-.326-.437.113-.584.694-.759.645-.194-.021.244.126.501.328.572.268.094.325-.027.214-.454-.135-.518-.077-.565.516-.415.54.136.637.088.507-.252-.094-.244-.053-.353.097-.26.142.088.258.33.258.538 0 .207.158.377.35.377.344 0 1.095 1.242.998 1.651-.028.115.304.333.737.484.433.152.717.39.631.53-.086.14-.327.189-.536.109-.211-.082-.308-.032-.219.113.274.445 1.172.294 1.187-.2.011-.385.079-.364.423.131.302.434.67.59 1.391.59.56 0 1.123.172 1.311.4.182.22.386.343.455.274.069-.068.295.047.504.256.69.693.915.395.296-.391-.334-.425-.8-.779-1.036-.787-.236-.008-.503-.314-.595-.68-.092-.366-.283-.594-.425-.506-.141.088-.179.3-.084.47.111.197.044.188-.186-.026-.395-.37-.096-1.112.533-1.322.205-.068.27.005.162.18-.1.164-.065.297.079.297.144 0 .334-.118.423-.263.107-.174.339-.168.685.019.381.204.625.196.898-.032.449-.374 1.815.091 2.047.697.079.205.469.508.868.673.57.236.627.323.268.409-.468.11-.648.594-.222.594.13 0 .36.36.513.799.225.647.203.826-.115.949-.215.083-.623-.059-.904-.315-.282-.256-.513-.396-.513-.312 0 .084-.382.047-.849-.082-.759-.21-.797-.197-.365.132.266.202.413.48.328.62-.086.138.02.319.235.402.214.082.39.012.39-.156 0-.224.088-.218.324.019.258.259.245.375-.065.568-.243.152-.423.147-.477-.01-.181-.529-.527-.227-.46.401.069.654.417 1.257.417.723 0-.154.221-.223.493-.151.271.07.584-.02.695-.2.148-.241.068-.279-.297-.14-.318.123-.405.102-.238-.056.143-.136.525-.328.848-.427.821-.248.763.345-.106 1.094-.532.46-.591.599-.254.599.28 0 .496.288.597.796.087.437.357.939.599 1.114.241.175.518.53.614.788.146.392.268.42.734.17.573-.309 1.002-.01 1.012.704.002.163.185.447.407.632.222.185.336.512.254.728-.082.216.1.659.405.985.451.482.517.758.35 1.467-.114.48-.184.962-.156 1.07.027.108-.127.196-.342.196-.552 0-.488.691.12 1.3.467.47.479.58.132 1.246-.209.402-.384.967-.39 1.255-.005.289-.182.754-.393 1.034-.211.28-.384.732-.384 1.004 0 .282-.141.448-.326.384-.534-.182-1.252.848-1.078 1.546.094.372.04.62-.134.62-.159 0-.29.227-.29.505s-.156.663-.347.854c-.191.192-.299.496-.239.675.059.179-.023.325-.182.325-.455 0-.861 1.312-.53 1.713.212.256.099.447-.464.78-.409.243-.899.793-1.088 1.222-.345.783-.839 1.096-2.177 1.384-.395.084-.718.329-.718.542 0 .214-.104.388-.231.388-.126 0-.292.237-.367.526-.091.35-.275.472-.553.365-.325-.126-.416.017-.416.654 0 .88-.127.935-1.893.829-.934-.057-1.344.319-.653.599.195.078.142.14-.131.152-.251.012-.457.2-.457.42 0 .22-.323.518-.718.661a16.59 16.59 0 00-1.24.513c-.287.138-.847.369-1.243.513-.396.144-.69.393-.653.554.037.16-.167.429-.454.596-.288.166-.847.627-1.243 1.024-.397.396-.791.72-.877.72-.086 0-.505.296-.931.656-.427.36-1.002.655-1.279.655-.322 0-.502.182-.502.505 0 .575-1.38 1.385-1.972 1.158-.229-.088-.378.013-.378.255 0 .24-.34.473-.85.581-.466.1-1.024.331-1.24.514-.583.496-1.5.716-1.69.406-.093-.15.015-.273.239-.273.224 0 .407-.118.407-.262 0-.442-.755-.291-1.306.262-.287.288-.522.442-.522.34 0-.1-.132-.05-.293.111-.161.162-.435.24-.608.173-.173-.066-.658.02-1.078.194-.42.174-.856.295-.97.27-.113-.026-.463.091-.776.26-.313.168-1.043.326-1.622.351-1.352.058-3.009.613-3.014 1.008-.003.21-.073.198-.22-.033-.118-.188-.498-.334-.844-.325-.346.01-.949.02-1.34.025-.39.004-.778.12-.863.259-.252.41-.6.287-.777-.274-.091-.288-.282-.524-.425-.524-.142 0-.19.112-.105.25.224.363-.84.855-1.438.664-.36-.114-.513-.041-.513.248 0 .226-.124.41-.276.41-.152 0-.222-.087-.156-.196.067-.108-1.013-.185-2.4-.171-1.387.013-2.593-.084-2.68-.216-.086-.133-.35-.047-.587.19-.236.237-.43.305-.43.15 0-.154-.176-.28-.391-.28-.216 0-.617-.227-.893-.503-.275-.276-.584-.424-.687-.328-.102.097-.029-.085.165-.403.444-.732.129-1.081-.48-.529-.744.677-1.84.768-2.029.17-.227-.718-1.104-1.147-1.563-.765-.486.406-1.54.227-1.636-.277-.055-.287.476-.623 1.81-1.147 1.04-.407 2.05-.902 2.249-1.1.197-.199.644-.361.993-.361.39 0 .634-.152.634-.393 0-.217.184-.394.407-.394.224 0 .335-.118.246-.262-.089-.144-.572-.262-1.075-.262-.543 0-.849-.106-.753-.262.301-.49-.175-.265-.696.328-.285.324-.444.442-.353.262.098-.193-.001-.328-.241-.328a.407.407 0 00-.407.405c0 .222-.147.376-.327.342-.508-.098-1.501.306-1.501.611 0 .155-.337.225-.77.161-.423-.062-.71-.017-.638.101.073.118.004.215-.152.215-.157 0-.353-.18-.437-.399-.122-.318-.276-.255-.765.317-.337.393-.646.66-.688.595-.515-.813-.69-1.3-.47-1.3.145 0 .264-.176.264-.392 0-.217.113-.394.252-.394.138 0 .386-.253.551-.562.263-.493.24-.546-.186-.423-.268.076-.688.222-.933.324-.336.14-.488.017-.616-.494-.093-.374-.287-.68-.431-.68-.15 0-.19-.287-.092-.675l.168-.674-.581.543c-.593.555-1.284.701-1.636.347-.284-.284-.776-.256-.998.057-.121.172-.193.146-.195-.071-.003-.255-.204-.225-.788.122-.786.466-1.023.876-.507.876.443 0 .044.447-.534.599-.29.076-.46.031-.38-.1.08-.13.022-.237-.13-.237s-.277-.177-.277-.393a.39.39 0 00-.383-.394c-.246 0-.332.165-.24.459.112.356.03.33-.364-.116-.494-.558-.55-.563-2.002-.182-1.092.286-1.587.314-1.838.104-.253-.21-.374-.2-.454.04-.06.181-.512.361-1.004.401-.493.04-1.283.114-1.755.166-.473.052-.92-.006-.995-.127-.237-.384-.69-.238-.533.173.083.216.049.393-.075.393-.123 0-.3-.197-.392-.437-.125-.328-.241-.362-.465-.137-.218.218-.393.221-.645.011-.52-.432-.415-.827.177-.672.287.076.596.017.687-.131.106-.172-.221-.231-.914-.165-.832.08-1.084.012-1.1-.297-.013-.27-.063-.293-.152-.073-.195.486-1.092.398-1.823-.179-.353-.279-.636-.574-.629-.655.05-.547-.046-.673-.509-.673-.312 0-.534.185-.552.459-.029.437-.036.437-.15 0-.066-.252-.287-.459-.492-.459-.205 0-.373-.123-.373-.273 0-.151-.146-.255-.326-.231-.18.023-.673.028-1.097.01-.57-.022-.694-.107-.477-.324.326-.327.161-1.017-.243-1.017-.142 0-.676-.418-1.186-.93-.68-.683-1.004-.853-1.215-.638-.21.214-.15.394.22.668.279.207.381.376.228.376-.154 0-.425-.177-.604-.393-.18-.217-.595-.394-.925-.394-.866 0-1.426-.265-1.426-.675 0-.21.162-.294.392-.206.437.169.502-.11.153-.664-.14-.223-.414-.295-.7-.186-.442.17-.443.153-.025-.31.243-.27.366-.568.272-.663-.094-.094-.313.024-.486.262-.276.38-.409.274-1.064-.848-.411-.704-.77-1.43-.796-1.611-.027-.182-.241-.524-.477-.761-.397-.399-.416-.38-.257.257.131.524.074.687-.24.687-.258 0-.355-.146-.261-.393.21-.549-.344-.494-.668.065-.23.397-.267.367-.274-.223-.013-1.03.507-2.319.878-2.176.464.179.205-3.03-.284-3.521-.204-.206-.31-.535-.234-.733.076-.197.01-.359-.147-.359-.19 0-.178-.13.036-.388.179-.217.277-.844.223-1.419-.085-.897-.042-1 .34-.795.347.187.493.074.708-.545.149-.429.576-1.087.95-1.461.644-.647 1.961-2.566 1.961-2.858 0-.075-.173-.136-.386-.136-.324 0-.335-.116-.068-.721.175-.396.466-.877.647-1.067.18-.19.4-.662.485-1.048.087-.387.577-1.706 1.09-2.931.513-1.226.984-2.818 1.047-3.54.063-.726.288-1.448.504-1.62.214-.17.312-.436.217-.59-.094-.154-.047-.28.105-.28.527 0 .668.118.583.487-.057.25.056.317.348.205.238-.092.54-.167.673-.167.132 0 .24-.236.24-.524 0-.289.117-.525.26-.525.144 0 .262-.302.262-.673 0-.533-.1-.641-.479-.52-.32.102-.479.021-.479-.245 0-.218.186-.398.414-.398.227-.001.063-.185-.365-.41-.513-.268-.81-.31-.872-.124-.139.418-.828 1.06-1.139 1.06-.15 0-.205-.263-.123-.592.162-.646-.207-1.477-.517-1.166-.106.106-.057.33.108.495.226.227.126.454-.41.92-1.266 1.107-1.361 1.168-1.361.877 0-.15-.19-.272-.422-.272-.291 0-.381.16-.288.515.091.35-.024.566-.362.673-.678.216-1.123 1.075-.694 1.34.22.137.114.252-.326.359-.45.108-.632.314-.59.666.036.298-.226.719-.63 1.014-.38.276-.607.365-.503.196.104-.169.065-.307-.087-.307a.27.27 0 00-.277.262.262.262 0 01-.26.262c-.145 0-.262-.184-.262-.408 0-.225-.116-.337-.258-.249-.148.092-.192-.013-.103-.246.1-.264.008-.407-.264-.407-.23 0-.42-.107-.42-.238 0-.13.235-.176.523-.1.292.076.522.008.522-.156 0-.161.365-.293.811-.293.614 0 .775-.095.661-.393-.082-.216-.03-.393.116-.393.32 0 1.546-1.29 1.546-1.627 0-.131-.118-.166-.261-.077-.144.089-.262-.02-.262-.24 0-.544 1.128-1.254 1.664-1.047.32.123.39.057.27-.257-.146-.382.13-.55.743-.453.108.017.196-.153.196-.378 0-.224.118-.336.261-.246.144.089.261.04.261-.11 0-.148.37-.462.821-.696.797-.414.817-.41.68.112-.076.296-.005.714.16.929.262.343.405.345 1.175.013.572-.247.828-.508.735-.75a.396.396 0 01.22-.512c.24-.093.31-.008.21.257-.09.237.083.562.431.807.46.322.508.458.23.635-.273.174-.25.225.105.228.251.002.456-.1.456-.227 0-.319 1.012-.56 1.183-.282.076.123.546-.017 1.045-.313.508-.3.906-.41.906-.248 0 .158-.117.288-.26.288-.144 0-.262.224-.262.498 0 .388.169.486.767.444.436-.03.7.056.612.2-.093.15.098.183.474.082.345-.093 1.023-.17 1.505-.172.704-.003.844-.088.712-.434-.131-.344-.091-.37.198-.128.28.233.439.211.691-.094.18-.218.483-.396.672-.396.19 0 .42-.122.51-.27.106-.172-.242-.242-.964-.196-.798.051-1.222.226-1.446.597-.197.325-.321.386-.327.162-.007-.273-.298-.33-1.184-.229-.646.073-1.175.054-1.175-.043 0-.347 2.576-.98 3.005-.739.475.267 1.149-.105 2.307-1.275l.743-.75-1.265-.274c-1.02-.22-1.163-.314-.742-.48.287-.114.58-.205.652-.203.072.002.384-.163.694-.367.482-.316.608-.317.866-.005.176.213.54.303.873.216.614-.16.91-.165 3.704-.063 1.006.037 1.96.169 2.122.293.337.26 1.143.019 1.143-.343 0-.133-.18-.311-.4-.396-.264-.102-.342-.333-.231-.686.144-.455.08-.509-.45-.375-.556.141-.572.123-.16-.187.252-.189.457-.478.457-.642 0-.443.443-.362.624.113zm-5.039.554c.274-.072.433-.024.352.107-.08.13-.021.238.13.238.153 0 .28-.148.281-.328.003-.219.086-.197.25.064.184.29.106.444-.306.596-.637.237-1.886-.73-1.578-1.222.113-.18.218-.107.277.193.065.33.254.442.594.352zm9.49-.16c-.318.352-.528.434-.595.232-.057-.172.058-.415.255-.54.651-.414.838-.245.34.309zm-29.221.072c-.54.396-.344.96.332.953.38-.004.387-.04.05-.258-.344-.223-.341-.255.021-.258a.41.41 0 00.414-.397c0-.486-.196-.496-.817-.04zm45.3-.091c0 .144-.052.262-.115.262-.064 0-.188-.118-.277-.262-.089-.145-.037-.263.115-.263a.27.27 0 01.277.262zm-22.219.851c-.011.325-.08.442-.153.261-.072-.181-.245-.26-.383-.174-.139.086-.448.08-.689-.012-.376-.145-.384-.202-.053-.412.708-.45 1.3-.293 1.278.337zm52.442-.431c-.087.087-.313.096-.5.02-.21-.083-.147-.145.157-.158.275-.01.43.05.343.138zm-79.272.685c-.187.188-.309.203-.309.04 0-.35.309-.66.483-.486.074.075-.004.275-.174.446zm18.755-.32c0 .145-.323.251-.718.237l-.718-.026.653-.21c.359-.115.682-.222.718-.236.036-.014.065.092.065.236zm20.667.207c-.189.063-.467-.01-.619-.162-.194-.195-.091-.229.343-.115.353.093.471.212.276.277zm56.112-.084c0 .21-.25.518-.555.682-.552.296-.552.295-.065-.376.574-.791.62-.814.62-.306zm4.333.27c.477.412.613.653.367.648-.51-.01-1.305-.622-1.305-1.003 0-.417.078-.387.938.356zm-101.482.176c0 .137-.107.183-.239.101-.131-.081-.295 0-.365.181s-.114.077-.1-.231c.027-.544.704-.593.704-.051zm69.989-.452c0 .276-.501.392-.65.15-.09-.146.019-.266.243-.266s.407.052.407.116zm30.258 1.232c-.143.289-.037.657.321 1.114.539.687.357.962-.24.363-.241-.243-.436-.249-.793-.025-.292.183-.616.207-.843.064-.296-.188-.276-.235.1-.239.299-.002.441-.168.392-.457-.044-.258.091-.458.315-.465.414-.013.453-.456.114-1.29-.202-.498-.198-.498.322 0 .36.345.458.64.312.935zm-81.705-.986c0 .056-.235.163-.523.238-.287.076-.457.03-.376-.1.14-.229.899-.344.899-.138zm12.034.515c.01.31.075.43.143.265.067-.165.37-.235.673-.155.343.09.487.041.383-.128-.092-.15-.404-.334-.694-.41-.41-.107-.522-.014-.505.428zm3.374-.32c0 .203.121.193.392-.033.433-.361.515-.078.146.508-.197.312-.307.317-.649.033-.465-.387-.542-.803-.15-.803.143 0 .261.132.261.294zm65.106.057c.096.253-.044.318-.495.232-.346-.066-.629-.225-.629-.352 0-.372.975-.267 1.124.12zm-48.522.173c.089.145.448.191.799.103.669-.169.834.117.35.604-.208.208-.494.169-1.043-.145-.745-.425-.994-.825-.514-.825.135 0 .319.119.408.263zm22.589.084c0 .128.162.171.36.095.348-.134.945.263.945.63 0 .098-.53.26-1.18.357-.783.118-1.128.282-1.025.489.085.17-.033.077-.263-.207-.35-.435-.499-.467-.93-.197-.957.6-.914.305.08-.55.934-.803 2.013-1.134 2.013-.617zm9.662-.085c0 .145-.206.26-.457.258-.39-.003-.4-.04-.065-.258.493-.32.522-.32.522 0zm-81.87.262c-.09.145-.28.263-.423.263-.144 0-.189-.118-.1-.263.089-.144.279-.262.422-.262.144 0 .19.118.1.262zm42.313.212c-.08.08-.291 0-.469-.179-.256-.259-.225-.289.147-.147.257.099.402.245.322.326zm40.976.077c-.7.276-.896.274-.896-.007 0-.286.805-.51 1.158-.321.134.072.016.22-.262.328zm13.549.744c-.052.064-.297-.088-.545-.337-.395-.396-.402-.483-.059-.697.295-.185.429-.102.545.337.084.32.111.634.059.697zm-30.376-.811c0 .122-.232.433-.517.691-.488.444-.526.444-.69.014-.104-.27-.026-.55.19-.687.465-.295 1.017-.305 1.017-.018zm1.306.581c0 .313-.179.508-.466.508-.276 0-.467-.194-.467-.473 0-.266.204-.488.467-.508.3-.022.466.147.466.473zm6.735-.175c-.185.201-.427.311-.537.244-.299-.181.044-.61.487-.61.318 0 .327.066.05.366zm6.78-.035c.62.49.323.677-.457.286-.431-.216-.784-.423-.784-.46 0-.187.956-.052 1.24.174zm-21.763.55c-.09.237-.274.43-.407.43-.133 0-.111-.246.05-.547.332-.623.606-.534.357.117zm2.98-.315c.255-.127.873-.08 1.481.113.865.273.933.338.392.378-1.053.077-2.872.127-2.872.08 0-.025.08-.255.178-.512.107-.28.22-.342.282-.154.066.198.263.232.54.095zm22.504-.026c0 .153-.116.206-.258.118-.143-.089-.195.006-.116.213.196.512-.465.72-.878.276-.216-.232-.233-.36-.048-.36.157 0 .214-.118.125-.262-.092-.149.128-.262.507-.262.367 0 .668.125.668.277zm-63 .15c-.074.126-.039.464.077.752.115.289.218.364.228.169.01-.206.184-.292.41-.205.216.083.392.028.392-.122 0-.295 1.266-.245 1.707.068.148.105.442.082.652-.052.21-.133.325-.255.253-.269-.148-.029-.648-.109-2.381-.38-.664-.103-1.266-.085-1.339.04zm11.973.576c-.133.216-1.507.587-2.64.713-.58.065-2.48.672-2.48.792 0 .278 1.894-.017 2.007-.312.084-.221.356-.246.921-.083.441.127.932.149 1.091.049.16-.1.407-.185.55-.19.144-.003.497-.146.784-.318.391-.233.448-.386.226-.612-.192-.195-.355-.209-.459-.04zm2.22.027c-.19.119-.57.158-.84.087-.272-.072-.494.002-.494.163 0 .374 1.48.385 1.708.013.238-.386.045-.522-.373-.263zm9.39.29c.278.15.505.385.505.524 0 .328-1.062.32-1.566-.013-.349-.23-.349-.287 0-.517.487-.32.453-.32 1.061.006zm58.078.533c-.153.249-.903.03-.903-.265 0-.105.078-.268.172-.363.231-.23.904.347.731.628zm-91.261-.427c0 .064-.117.188-.261.278-.144.089-.261.037-.261-.116s.117-.278.26-.278c.145 0 .262.052.262.116zm6.268.57c0 .217-.118.321-.262.232-.143-.09-.26-.339-.26-.555 0-.217.117-.32.26-.232.144.09.262.34.262.556zm-8.985-.12c.11.178.072.231-.093.129-.154-.096-.339-.025-.412.156-.08.198-.14.147-.152-.13-.024-.518.375-.613.657-.156zm68.58.535c-.244.245-.314.175-.314-.314 0-.49.07-.56.313-.315.244.245.244.385 0 .63zm28.904-.533c-.057.643.081 1.135.367 1.313.198.123.18.302-.058.59-.288.348-.273.413.097.413.242 0 .372-.108.291-.24-.082-.134.037-.428.264-.656.227-.228.295-.415.151-.415-.143 0-.299-.256-.345-.57-.092-.63-.718-.986-.767-.435zm-7.407.486c.467.519.464.528-.156.433-.348-.053-.67-.291-.717-.53-.115-.59.295-.544.873.097zm-78.605.157c-.48.482-.399.709.174.488.212-.081.386-.32.386-.53 0-.48-.042-.477-.56.042zm-18.81.1c.09.144.038.262-.114.262a.27.27 0 01-.277-.262c0-.144.052-.262.115-.262.064 0 .188.118.277.262zm41.654 0a.262.262 0 01-.26.262.262.262 0 010-.524c.143 0 .26.118.26.262zm44.918 0a.262.262 0 01-.261.262.263.263 0 010-.524c.144 0 .261.118.261.262zm17.171.415c-.249.25-.748-.155-.562-.456.11-.179.256-.174.444.014.153.154.207.353.118.442zm-21.088-.153a.27.27 0 01-.276.262c-.152 0-.204-.117-.116-.262.089-.144.213-.262.277-.262.063 0 .115.118.115.262zm7.391.83c.487.09.657.54.256.675-.301.1-1.379-.918-1.379-1.303 0-.166.147-.112.326.12.18.23.538.46.797.508zm3.447-.568c.204.332-.142.332-.653 0-.338-.218-.331-.254.05-.258.243-.002.514.114.603.258zM9.233 37.35c-.028.495.091.661.475.661.382 0 .492-.15.43-.587-.12-.843-.857-.904-.905-.074zm60.756-.387a.262.262 0 01-.261.262.262.262 0 010-.524c.143 0 .26.118.26.262zm28.596 0c-.092.149.133.262.522.262.39 0 .614-.113.522-.262-.089-.144-.324-.262-.522-.262s-.433.118-.522.262zm15.431.457c-.181.181-.676-.188-.676-.505 0-.174.15-.154.398.053.219.183.344.386.278.452zm3.681-.146c-.084.21-.146.147-.158-.158-.011-.277.05-.431.137-.344.087.087.096.313.021.502zM15.93 37.161c0 .11-.222.338-.494.509-.428.268-.476.242-.36-.2.123-.477.854-.741.854-.31zm6.932.045c-.083.134-.03.318.115.409.146.09.265-.02.265-.245 0-.46-.156-.528-.38-.164zm67.91.448c-.138.36-.1.376.233.1.453-.378.5-.53.165-.53-.128 0-.307.194-.398.43zm14.733.063c0 .145.118.335.261.425.144.089.262.043.262-.1 0-.145-.118-.336-.262-.425-.143-.089-.261-.044-.261.1zm-78.084.293c0 .145.117.263.261.263a.262.262 0 000-.525.262.262 0 00-.261.262zm93.944-.103c-.087.087-.312.096-.501.02-.208-.083-.146-.145.158-.158.275-.011.429.05.343.138zm-14.032.335c0 .127.206.305.457.393.252.09.634.236.849.326.216.09.132-.087-.185-.393-.597-.577-1.121-.73-1.121-.326zm11.622.03c.088.145.036.263-.116.263a.27.27 0 01-.276-.262c0-.145.052-.263.115-.263s.188.118.277.263zm5.635.153c.012.306.074.368.158.159.075-.19.066-.416-.021-.503-.087-.087-.148.068-.137.344zm-110.033.717c-.178.384-.41.7-.517.701-.105.001-.373.386-.594.854-1.147 2.43-2.478 3.943-2.478 2.818 0-.305.11-.486.246-.403.135.084.229-.065.209-.33-.041-.547.733-2.308 1.12-2.548.139-.086.255-.003.257.186.008.616.51-.394.515-1.033.002-.325.118-.59.257-.59s.178.196.086.436c-.112.293-.067.374.139.247a.717.717 0 00.305-.546c0-.301.52-.694.716-.54.034.026-.084.363-.261.748zm11.297-.345a.262.262 0 01-.261.262.262.262 0 010-.524c.143 0 .261.118.261.262zm-14.624.262c-.335.217-.326.255.065.258.251.002.457-.114.457-.258 0-.32-.03-.32-.523 0zm61.283-.087a.722.722 0 00-.174.445c0 .164.122.149.309-.039.17-.17.248-.371.174-.446-.074-.074-.213-.056-.309.04zm39.911.346c.091.149-.013.193-.246.103-.452-.174-.535-.362-.159-.362.135 0 .317.117.405.26zm-93.23.265c.09.144.038.262-.114.262a.27.27 0 01-.277-.262c0-.144.052-.262.115-.262.064 0 .188.118.277.262zm54.583-.002c-.214.347.33.581.915.395.286-.091.52-.054.52.083s.233.31.517.385c.44.116.478.062.252-.362-.146-.274-.35-.512-.452-.529-1.07-.17-1.635-.162-1.752.028zm39.378.261c-.075.287-.246.454-.38.37-.144-.089-.119-.303.062-.521.412-.498.479-.466.318.151zm-85.865.528c-.088.144-.037.262.116.262a.27.27 0 00.276-.262c0-.145-.052-.262-.115-.262-.064 0-.188.117-.277.262zm94.668 0c0 .144-.052.262-.115.262-.064 0-.188-.118-.277-.262-.089-.145-.037-.262.115-.262s.277.117.277.262zm-1.242.174c-.452.183-.14.612.446.612.501 0 .903.663.651 1.072-.266.431-.9.25-.9-.257 0-.273-.176-.564-.392-.648-.544-.21-.492-.958.066-.933.276.013.327.074.129.154zm-97.552.804c-.338.338-.512.37-.747.133-.236-.237-.16-.365.324-.549.812-.307.98-.143.423.416zm51.525-.454c0 .144.118.262.262.262.143 0 .26.177.26.393 0 .447.41.527.655.13.181-.296-.462-1.047-.897-1.047-.154 0-.28.118-.28.262zm39.826 0c.089.144-.015.262-.23.262-.216 0-.465-.118-.553-.262-.089-.144.014-.262.23-.262.215 0 .464.118.553.262zm1.872 1.349c.003 1.249-.011 1.276-.304.57a12.24 12.24 0 01-.48-1.435c-.144-.586-.096-.676.304-.572.38.1.477.39.48 1.437zm-2.133-.563c.089.145.037.263-.115.263s-.277-.118-.277-.263c0-.144.052-.262.115-.262.064 0 .188.118.277.262zm-48.045.88c-.293.215-.373.416-.207.52.15.092.419-.011.6-.23.444-.537.195-.721-.393-.29zm58.175.17c.075.288.03.458-.1.377-.13-.08-.237-.317-.237-.525 0-.542.177-.465.337.147zm-113.857.458c-.275.773-1.443 2.717-1.561 2.599-.187-.187 1.348-3.058 1.634-3.058.05 0 .017.206-.073.459zm54.139-.271c-.11.109-.386.2-.614.202-.573.005-.732.621-.212.821.232.09.634-.028.891-.262.258-.234.563-.337.68-.229.115.109.157.028.092-.18-.14-.45-.563-.628-.837-.352zm-48.48.736c-.182.22-.255.475-.163.568.093.092.168.042.168-.113 0-.159.245-.217.561-.134.523.137.53.17.106.482-.251.183-.61.275-.796.203-.187-.072-.418-.005-.513.15-.094.153-.37.277-.614.275-.38-.003-.387-.039-.05-.258.216-.14.313-.256.216-.258-.258-.006.92-1.304 1.187-1.31.126-.003.08.175-.102.395zm94.731.125c.403 0 1.093.71 1.109 1.142.004.123-.165.158-.375.077-.542-.21-.732.23-.267.618.214.178.389.433.389.566 0 .133-.3-.06-.667-.428-.367-.368-.59-.794-.496-.947.094-.152-.036-.428-.287-.613-.296-.217-.381-.462-.24-.69.161-.26.246-.272.323-.04.058.173.288.315.511.315zm16.454.158c-.105.105-.19.372-.19.593 0 .295.077.324.29.11.16-.16.246-.427.191-.593-.055-.166-.186-.215-.291-.11zm-10.937 1.061c.254.49.228.547-.196.436-.333-.087-.445-.29-.354-.64.15-.574.146-.575.55.204zm-109.093.691c-.213.214-.29.185-.29-.11 0-.522.351-.874.481-.483.055.166-.03.433-.19.593zm105.947-.547c.365.367.417.996.082.996-.127 0-.424-.295-.659-.656-.328-.502-.347-.655-.082-.655.19 0 .486.142.659.315zm13.371.213c.348.23.348.287 0 .517-.336.22-.326.258.065.262.251.002.46.151.465.331.004.18.132.114.283-.147.383-.66.099-1.23-.61-1.225-.482.004-.521.053-.203.262zm-112.076.925c-.3.51-.598.876-.663.81-.18-.18.684-1.739.963-1.739.136 0 0 .418-.3.93zm108.016.138c-.082.134-.036.244.102.244.139 0 .332.582.43 1.294.132.964.271 1.258.546 1.152.204-.079.379-.042.39.082.021.24.142.844.255 1.273.038.144-.022.472-.133.728-.158.362-.283.398-.564.164-.481-.4-.458-.103.053.679.228.349.346.745.262.88-.083.136.051.324.297.42.384.147.393.206.064.41-.212.132-.409.568-.44.97a21.23 21.23 0 01-.214 1.647 43.151 43.151 0 00-.256 1.704c-.258 2.101-.49 3.205-.806 3.834-.19.378-.279.753-.199.834.245.246-.414 1.918-1.047 2.658l-.597.697.02-.905c.011-.498.092-.861.18-.808.316.194 1.088-1.993 1.136-3.22.048-1.192.263-2.354.597-3.22a5.14 5.14 0 00.178-.525c.015-.072.097-.25.183-.393.086-.145.11-.557.054-.918-.056-.36-.097-1.275-.091-2.031.006-.757-.082-1.377-.195-1.377-.114 0-.201-.48-.193-1.068.008-.588-.128-1.62-.301-2.294-.33-1.285-.187-3.544.209-3.298a.28.28 0 01.08.387zm-5.342-.018a.262.262 0 01-.261.262.262.262 0 010-.524c.144 0 .261.118.261.262zm1.175.583c.149.111.065.197-.196.2a.44.44 0 01-.457-.434c0-.24.088-.33.196-.2.108.131.314.326.457.434zm-.533 1.27c-.083.134.029.244.249.244.247 0 .341.15.248.393-.263.687-.797.428-.821-.398-.012-.437.089-.722.226-.637.136.085.18.264.098.398zm-105.331.576c-.258.257-.288.227-.147-.147.099-.258.245-.404.325-.323.08.08 0 .292-.178.47zm2.447.456c-.261.29-.531.469-.6.4-.176-.177.476-.926.804-.926.149 0 .056.237-.204.526zm96.66-.34c-.082.082-.086.25-.01.375.183.298.891.291.891-.009 0-.289-.677-.57-.881-.366zm17.203.338c-.088.145.029.263.261.263.233 0 .35-.118.262-.263-.089-.144-.207-.262-.262-.262-.054 0-.172.118-.261.262zm-10.335 1.639l-.02 1.376-.33-.917c-.339-.942-.271-1.835.139-1.835.127 0 .222.62.211 1.376zM6.79 50.724c0 .217-.114.394-.253.394-.14 0-.185-.178-.103-.394.083-.216.197-.393.253-.393.057 0 .103.177.103.393zm-3.32.656c-.13.503-.597.748-.597.314 0-.183.532-.839.68-.839.03 0-.007.236-.082.525zm10.653.484c-.155.292-.286.744-.29 1.006-.005.262-.189.712-.41 1-.387.507-.395.503-.236-.147.09-.368.191-.84.226-1.048.092-.564.712-1.622.862-1.471.072.072.004.37-.152.66zm98.172-.484c0 .144.125.262.277.262.152 0 .204-.118.115-.262-.089-.145-.213-.263-.277-.263-.063 0-.115.118-.115.263zm-92.614.393c-.083.216-.197.393-.253.393-.057 0-.103-.177-.103-.393 0-.216.114-.393.253-.393.14 0 .185.177.103.393zm107.239-.131c0 .144-.052.262-.115.262-.064 0-.188-.118-.277-.262-.089-.144-.037-.262.115-.262s.277.118.277.262zM12.793 52.756c-.004.46-.057.506-.244.209-.133-.21-.182-.475-.112-.59.227-.368.36-.225.356.38zm113.783-.016c-.084.209-.145.146-.158-.159-.011-.276.05-.431.137-.344.087.087.096.313.021.503zm-123.95.709c-.31.58-.798.748-.798.273 0-.604.57-1.35.832-1.088.174.175.163.446-.034.815zm3.38-.496c0 .144-.051.262-.115.262-.063 0-.187-.118-.276-.263-.089-.144-.037-.262.115-.262a.27.27 0 01.276.263zm1.462.302c.12.195.07.231-.137.102-.216-.134-.306-.04-.271.288.085.812.005 1.142-.279 1.142-.15 0-.217-.322-.152-.72.065-.397.128-.81.14-.918.032-.303.49-.233.699.106zm114.52.427c-.15.282-.199.587-.108.678.091.09.028.165-.14.165-.167 0-.305-.125-.305-.28 0-.413.544-1.358.696-1.206.071.072.007.361-.143.643zM5.582 53.604c.339.257.427.517.286.843-.19.438-.211.435-.316-.053a1.714 1.714 0 00-.531-.852c-.231-.18-.31-.324-.174-.319.135.004.466.176.735.38zm6.87 1.845c-.104 1.638-.085 1.705.444 1.56.483-.132.502-.108.145.19-.224.187-.481.539-.572.78-.196.527.33 2.05.711 2.055.148.002.12.1-.064.217-.226.144-.347.99-.374 2.617-.032 1.888-.12 2.405-.413 2.405-.21 0-.311-.158-.233-.362.12-.313-.254-1.758-.787-3.046-.09-.216-.144-.482-.121-.59.023-.108-.047-.196-.154-.196-.362-.001-.287-3.425.09-4.15.2-.385.364-.843.365-1.019.002-.346.822-2.171.976-2.171.053 0 .046.77-.013 1.71zm114.207-1.448c0 .144-.125.262-.277.262-.152 0-.204-.118-.115-.262.089-.144.213-.262.276-.262.064 0 .116.118.116.262zm-112.818.946c0 .056-.176.103-.392.103-.215 0-.391-.115-.391-.254 0-.14.176-.186.391-.103.216.083.392.197.392.254zM0 55.312a.27.27 0 00.277.262c.152 0 .204-.118.115-.262-.09-.145-.213-.262-.277-.262-.063 0-.115.117-.115.262zm18.28 2.228c0 .216.047.393.103.393.057 0 .17-.177.253-.393.083-.216.037-.393-.102-.393-.14 0-.253.177-.253.393zm-10.91.755c.244 1.28.226 4.094-.026 4.094-.321 0-.5-.638-.52-1.858-.008-.517-.137-1.262-.286-1.655-.337-.89-.338-1.016-.01-.812.144.09.262.037.262-.115 0-.544.463-.267.58.346zm-6.587.047c0 .224.118.336.262.247.143-.09.26-.273.26-.41 0-.135-.117-.246-.26-.246-.144 0-.262.184-.262.409zm124.047.77c0 .217-.097.394-.217.394s-.218-.177-.218-.393c0-.216.098-.393.218-.393s.217.177.217.393zm-.441 1.786c-.08.13-.241.082-.357-.106-.117-.189-.146-.45-.066-.58.08-.13.241-.083.358.105.116.189.145.45.065.58zm1.878-.344c.089.145.037.263-.115.263s-.277-.118-.277-.263c0-.144.052-.262.115-.262.064 0 .188.118.277.262zM14.204 61.651c-.093.15-.007.376.191.502s.242.227.099.224c-.144-.002-.496-.182-.782-.4-.437-.33-.46-.433-.143-.63.453-.28.871-.08.634.304zm2.77.754c0 .136-.117.247-.26.247-.144 0-.261-.184-.261-.409 0-.225.117-.336.26-.247.144.09.262.273.262.409zm110.207-.03c0 .135-.118.319-.261.408-.144.089-.261.39-.261.67s-.11.51-.243.51c-.15 0-.15-.327 0-.85.133-.468.243-.881.243-.918 0-.038.117-.068.261-.068.143 0 .261.111.261.247zm-14.797 1.335c.122.528.055.664-.33.664-.391 0-.476-.188-.447-.98.026-.74.107-.902.329-.664.162.173.364.614.448.98zM5.161 62.98c.013.18.105.591.203.914.213.697-.57 1.167-.944.565-.155-.249-.098-.394.18-.455.289-.063.36-.272.249-.72-.087-.348-.058-.632.064-.632.123 0 .234.147.248.327zm9.986.196c0 .144-.052.262-.115.262-.064 0-.188-.118-.277-.262-.089-.144-.037-.262.115-.262a.27.27 0 01.277.262zm112.817.11c0 .418-.377.939-.681.939-.375 0-.497-.565-.189-.874.19-.191.87-.242.87-.066zm-112.909.353c.382.244.462.816.22 1.568-.133.417-.392.589-.877.586-.48-.003-.582-.07-.336-.227.193-.123.363-.652.378-1.176.028-.984.105-1.078.615-.751zM7.61 65.838c-.189.511-.253.469-.757-.502-.657-1.266-.48-1.619.358-.71.446.482.55.8.399 1.212zm9.033-1.717c-.087.087-.312.096-.5.02-.209-.083-.147-.145.157-.158.276-.011.43.05.343.138zm103.748.89c0 .288-.045.524-.1.524-.055 0-.162-.236-.237-.524-.075-.288-.03-.524.1-.524s.237.236.237.524zm-111.773.424c0 .216-.118.32-.261.231-.144-.089-.261-.339-.261-.555 0-.216.117-.32.26-.231.144.089.262.339.262.555zm7.835-.424a.27.27 0 01-.277.262c-.152 0-.204-.118-.115-.262.089-.144.213-.262.276-.262.064 0 .116.118.116.262zm2.674.147c-.325.613.514 3.125 1.121 3.36.443.17.526-.624.141-1.348-.133-.25-.41-.92-.617-1.487-.338-.928-.403-.981-.645-.525zm106.796.172c-.187.188-.309.203-.309.04 0-.35.309-.66.483-.486.074.075-.004.275-.174.446zm-122.394.795c-.118 1.449-.147 1.5-.395.72-.342-1.069-.294-1.834.112-1.834.28 0 .351.28.283 1.114zm119.652-.278c-.084.209-.145.146-.158-.159-.011-.276.05-.43.137-.344.087.087.096.313.021.503zm-8.666-.05c-.089.145-.272.263-.407.263-.135 0-.246-.118-.246-.263 0-.144.183-.262.407-.262.224 0 .335.118.246.262zm1.75.84c-.168.168-.392.218-.498.112-.106-.107-.023-.299.184-.427.488-.303.708-.082.314.314zm-110.436.809c-.08.13-.258.117-.404-.03a.492.492 0 01-.068-.575c.146-.238.243-.23.404.03.116.189.147.448.068.575zm3.442-.6c.089.144.037.262-.115.262a.27.27 0 01-.277-.262c0-.144.052-.262.115-.262.064 0 .188.118.277.262zm104.591 0a.262.262 0 01-.261.262.262.262 0 010-.524c.144 0 .261.118.261.262zM2.326 67.53c-.38.459-.622.28-.402-.297.089-.232.286-.344.437-.25.19.117.178.289-.035.547zm16.216.161c0 .154-.166.129-.392-.06-.215-.18-.392-.367-.392-.417 0-.05.177-.023.392.06.216.083.392.271.392.417zm97.409-.322c.317.206.279.255-.196.258-.323.002-.587-.114-.587-.258 0-.328.277-.328.783 0zm-109.814.787c.089.144.037.262-.115.262a.27.27 0 01-.277-.262c0-.144.052-.263.115-.263.064 0 .188.118.277.263zm117.202.524c-.131.503-.598.749-.598.315 0-.183.533-.84.681-.84.03 0-.008.237-.083.525zm-.815.197c-.129.252-.182.606-.118.786.065.18-.068.328-.296.328-.227 0-.413-.054-.413-.12 0-.342.638-1.453.834-1.453.128 0 .125.202-.007.459zm-103.199.358c0 .144-.117.19-.26.1-.145-.089-.262-.28-.262-.424 0-.144.117-.19.261-.1.144.09.261.28.261.424zm-15.669.624c0 .217-.117.394-.261.394-.144 0-.261-.177-.261-.394 0-.216.117-.393.261-.393.144 0 .261.177.261.394zM7.835 70c0 .131-.176.17-.39.088-.215-.083-.325-.258-.244-.39.17-.274.634-.053.634.302zm113.078-.27a.27.27 0 01-.276.263c-.152 0-.204-.118-.116-.263.089-.144.214-.262.277-.262.063 0 .115.118.115.263zm-2.872.494c0 .144.117.335.261.424.143.09.261.044.261-.1 0-.144-.118-.335-.261-.424-.144-.09-.261-.044-.261.1zm2.338.578c-.16.3-.344.494-.407.43-.183-.183.188-.977.456-.977.133 0 .111.246-.049.547zm-111.761.386c0 .224-.118.335-.261.246-.144-.089-.261-.273-.261-.408 0-.136.117-.247.26-.247.144 0 .262.184.262.409zm46.755 2.457c-.317.596-.359 1.088-.05.6.154-.244.292-.159.506.313.284.626.246.661-1.105 1.056-.77.224-1.52.408-1.67.408-.149 0-.35.13-.449.29-.124.2.23.26 1.16.196.776-.054 1.342.017 1.347.17.01.307 1.741 1.17 1.943.968.075-.076.137-.304.137-.506 0-.26-.169-.313-.585-.18-.498.158-.537.127-.264-.204.177-.214.245-.467.15-.562-.094-.095-.044-.172.112-.172.155 0 .338.147.405.328.092.245.212.225.479-.079.867-.988 1.197-1.093 1.97-.629l.736.442-.623-.518c-.398-.331-.52-.582-.336-.696.208-.128.206-.356-.006-.824-.245-.539-.477-.646-1.405-.646-.645 0-1.167.138-1.243.328-.079.196-.14.143-.153-.131-.027-.615-.719-.584-1.056.048zm-47.147.018c-.089.144.01.262.218.262.455 0 .844.868.448 1-.152.051-.201.216-.109.367.096.155.012.221-.194.152a.56.56 0 01-.363-.492c0-.205-.207-.527-.461-.717-.508-.381-.383-.835.23-.835.216 0 .32.118.231.263zm50.207.165c.79.213.753.714-.042.561-.45-.086-.59-.02-.494.232.165.432-.487.466-.905.047-.231-.233-.197-.387.144-.647.523-.399.53-.4 1.297-.193zm-46.42.752a.39.39 0 01-.384.393c-.233 0-.324-.153-.233-.393.083-.216.255-.393.384-.393.128 0 .233.177.233.393zm1.708-.113c.281.456-.039.553-.397.12-.206-.25-.226-.4-.053-.4.153 0 .356.126.45.28zm39.583.078c-.226.273-.202.438.098.688.326.27.395.252.395-.105 0-.239.265-.54.588-.67.574-.233.572-.238-.099-.255-.377-.008-.82.145-.982.342zm62.976-.03c-.143.18-.324.504-.405.72-.08.217-.129.07-.109-.327.023-.426.188-.721.405-.721.257 0 .289.098.109.327zm5.482.108c-.455.184-.409.612.065.612a.393.393 0 00.392-.393c0-.216-.03-.384-.065-.372-.036.011-.212.08-.392.153zm-70.315.584c0 .291.803.62 1.009.413.083-.083-.022-.26-.233-.395-.489-.31-.776-.317-.776-.018zm66.332.16c0 .44.665.536.914.13.089-.144.287-.262.439-.262.176 0 .158.146-.047.394-.179.216-.487.393-.685.393-.198 0-.359.118-.359.262a.263.263 0 01-.262.262c-.143 0-.231-.147-.196-.328.038-.185-.137-.293-.402-.248-.41.07-.426.013-.133-.459.394-.632.731-.7.731-.145zm-91.207.695c.467.136.849.305.849.377 0 .28-1.967-.258-2.344-.64-.357-.362-.345-.382.124-.193.287.116.904.321 1.371.456zm-16.537.135c.092.24.046.559-.103.707-.185.187-.27.136-.27-.161 0-.238-.205-.553-.456-.7-.413-.242-.403-.268.102-.275.308-.005.635.188.727.429zm106.439.095c0 .293-.206.61-.457.706a2.731 2.731 0 00-.802.516c-.467.463-.849.434-.664-.05.083-.217.243-.394.356-.394.113 0 .483-.292.821-.65.747-.79.746-.79.746-.128zm-102.583.213c.188.265.636.637.995.828.359.19 1.169.739 1.8 1.22.631.482 1.378.877 1.66.877.461 0 1.83.928 3.175 2.153.574.522 4.888 2.704 5.182 2.62.107-.03.196.07.196.223 0 .152.147.193.326.089.18-.104.24-.092.133.026-.107.118-.07.364.08.546.221.267.084.273-.7.032-.763-.235-1-.23-1.085.027-.073.221-.418.278-1.064.175-1.624-.259-3.697-.946-3.697-1.225 0-.147.162-.204.36-.127.198.076.492.006.653-.156.216-.217.298-.16.313.217.012.282.08.364.153.184a.573.573 0 01.493-.328c.216 0 .3.16.21.396-.108.284-.031.35.27.234.232-.089.42-.284.42-.433 0-.416-.846-.966-1.5-.975-.324-.005-.588-.126-.588-.27 0-.145-.237-.263-.526-.263-.753 0-2.885-1.055-2.843-1.407.127-1.068-.311-1.43-1.946-1.603-.265-.028-.778-.43-1.138-.892-.617-.792-.676-.813-1.038-.369-.21.259-.313.33-.227.159.097-.194-.042-.297-.365-.273-.365.028-.506.21-.473.61.027.328.182.52.364.45.174-.068.448.122.607.421.297.556-.061.801-.39.267-.1-.163-.498-.205-.969-.101-.634.14-.768.098-.652-.205.188-.49-1.257-1.876-1.756-1.684-.599.231-.181-.527.558-1.014.36-.236.729-.355.82-.264.09.092.01.264-.182.382-.242.15-.26.269-.057.394.159.099.289.409.289.688 0 .562.386.68.678.207.12-.195.07-.231-.138-.103-.229.143-.298.021-.236-.418.072-.506.242-.618.936-.616.467.001.849-.087.849-.197 0-.11-.105-.199-.233-.199s-.301-.177-.384-.393c-.211-.553.258-.49.667.09zm44.607.026c0 .135.117.32.261.408.144.09.261-.022.261-.246 0-.225-.117-.409-.26-.409-.145 0-.262.11-.262.247zm-42.307.277a.262.262 0 01-.26.262.262.262 0 010-.524c.143 0 .26.118.26.262zm35.799.153c.012.306.074.368.157.159.076-.19.067-.416-.02-.503-.087-.087-.148.068-.137.344zm2.59.244c0 .19-.075.563-.168.827-.133.378-.099.415.162.173.182-.169.478-.25.658-.181.623.24.596-.576-.029-.871-.49-.233-.622-.222-.622.052zm62.677.259c-.185.223-.394.346-.466.274-.072-.072.02-.313.205-.536.185-.224.394-.347.466-.275.072.072-.02.313-.205.537zm-109.924.021c.012.306.074.368.158.159.075-.19.066-.415-.021-.502-.087-.088-.148.067-.137.343zm9.78.321c-.081.081-.292 0-.469-.179-.256-.259-.226-.289.146-.147.258.099.403.246.322.326zm44.361.095c-.074.12.108.218.404.218.295 0 .537-.098.537-.218s-.181-.219-.403-.219c-.222 0-.464.098-.538.219zm46.433.936c-.187.067-.599.387-.914.713-.613.631-1.589 1.092-1.444.682.128-.365 2.402-1.845 2.562-1.668.075.083-.017.206-.204.273zm9.872.084c0 .152.118.205.262.115.143-.089.261-.213.261-.277 0-.064-.118-.116-.261-.116-.144 0-.262.125-.262.278zm-86.496.605c.432.49.422.5-.315.32-.42-.102-1.007-.36-1.306-.571-.52-.369-.508-.382.316-.32.472.035 1.06.292 1.305.57zm1.36-.096c0 .365.875.328 1.255-.053.243-.244.313-.24.313.024 0 .186.26.55.58.809l.579.47-.776-.119a17.687 17.687 0 00-1.363-.154c-.323-.018-.587-.187-.587-.374 0-.188-.118-.341-.261-.341a.262.262 0 010-.525c.143 0 .26.118.26.263zm4.636.279c.721.456.752.925.083 1.284-.575.309-1.976-.09-1.729-.492.082-.132.009-.287-.162-.344-.17-.057-.243-.278-.161-.49.182-.478 1.181-.456 1.97.042zm13.234.42c.097.253-.133.347-.837.34-.853-.007-.917-.049-.524-.349.577-.44 1.191-.436 1.361.009zm-3.245-.06c0 .064-.117.189-.26.278-.144.09-.262.037-.262-.115 0-.153.118-.278.261-.278.144 0 .261.052.261.116zm-38.5.377c-.077.126.149.229.503.229s.58-.103.502-.23c-.078-.126-.304-.229-.502-.229-.199 0-.424.103-.502.23zm28.267-.05c.188.075.413.066.5-.022.087-.087-.067-.148-.343-.137-.304.012-.366.075-.157.158zm49.206.212c-.326.174-.65.393-.719.487-.069.093-.048.112.046.041.095-.071.33.003.523.163.27.225.35.188.35-.164 0-.336.16-.425.61-.339.347.067.609-.01.609-.179 0-.395-.689-.4-1.42-.01zm-45.893.132c-.089.145-.33.262-.538.262-.207 0-.376-.117-.376-.262 0-.144.242-.262.538-.262.295 0 .465.118.376.262zm1.865.262c.212 0 .318.11.234.246-.224.364-1.15.224-1.312-.199-.096-.252-.01-.317.276-.207.229.088.59.16.802.16zM116.304 81c-.648.262-1.007.743-.749 1.002.098.098.337-.04.531-.306.194-.267.478-.407.631-.312.154.095.279-.011.279-.236 0-.225-.03-.401-.065-.392-.036.01-.318.119-.627.244zm-72.252.575c-.084.209-.145.147-.158-.159-.011-.276.05-.43.137-.343.087.087.096.313.02.502zm2.955-.064c0 .119-.235.278-.522.353-.604.159-.653.044-.196-.453.328-.356.718-.302.718.1zm67.769.801c-.089.144-.037.262.115.262s.277-.118.277-.262c0-.144-.052-.262-.115-.262-.064 0-.188.118-.277.262zm-96.64.787c.408 0 1.067.735.852.95-.19.191-2.013-1.189-2.013-1.524 0-.138.184-.065.41.162.226.226.564.412.752.412zm34.617-.279c0 .381.211.528.848.59.99.096 1.039.568.073.69-.715.089-1.444-.462-1.444-1.092 0-.215-.146-.45-.326-.522-.18-.073-.062-.142.261-.153.414-.015.588.13.588.487zm59.949.431c-.599.44-.929.475-.929.101 0-.294 1.094-.793 1.305-.595.072.067-.098.29-.376.494zm-65.553.127c.276.45.029.494-.519.092-.423-.31-.436-.371-.08-.371.235 0 .504.126.599.28zm2.14.6c.908.938.876 1.218-.137 1.218-.547 0-.592-.06-.31-.401.275-.333.228-.511-.275-1.049-.333-.356-.498-.646-.365-.644.133.001.622.396 1.087.876zm55.302-.617c-.089.144.022.262.246.262s.407-.118.407-.262c0-.144-.11-.262-.246-.262-.135 0-.318.118-.407.262zm-34.716.497c-.08.129.031.302.246.385.237.09.39-.001.39-.235 0-.424-.408-.52-.636-.15zm-50.194.42c.082.217.036.393-.103.393-.139 0-.253-.176-.253-.393 0-.216.046-.393.103-.393.056 0 .17.177.253.393zm24.742.265c.438-.11.81.009 1.22.391.323.303.702.48.842.393.145-.09.188.018.1.248-.086.224-.026.407.133.407.16 0 .29.177.29.393 0 .219-.233.394-.523.394-.287 0-.522-.096-.522-.212 0-.2-.568-.182-2.09.063-.359.058-.711.126-.783.151-.072.025-.61.028-1.195.005-.7-.027-1.183.103-1.413.381-.192.233-.418.329-.503.214-.084-.115-.498-.386-.92-.602-.85-.438-.992-.874-.325-1.003.315-.06.39.038.27.355-.155.404-.099.403.718-.018.488-.25.974-.587 1.079-.747.113-.172.194-.064.196.26.003.445.157.548.784.525.77-.028 1.391-.683.648-.683-.522 0-.486-.429.052-.636.241-.093.532-.017.65.168.142.226.215.121.22-.319.006-.45.076-.547.225-.312.133.21.46.282.847.184zm11.277.682c-.206.207-.505.213-1.031.02-.64-.233-.662-.273-.169-.29.315-.012.651-.15.748-.306.126-.206.255-.206.459 0 .204.205.203.366-.007.576zm-26.843-.291c.089.144.037.262-.115.262a.27.27 0 01-.277-.262c0-.144.052-.263.116-.263.063 0 .188.118.276.263zm1.41.48c-.131.05-.171.197-.09.328.081.132-.02.24-.223.24-.253 0-.333-.204-.25-.64.097-.507.192-.575.46-.327.187.171.232.351.102.4zm4.597.044c.089.144.037.262-.115.262a.27.27 0 01-.277-.262c0-.144.052-.262.115-.262.064 0 .188.118.277.262zm8.668-.095c-.208.21.028.62.357.62.135 0 .246-.178.246-.394 0-.405-.308-.52-.603-.226zm-7.041.253c-.087.087-.313.097-.5.021-.21-.084-.147-.146.157-.158.275-.012.43.05.342.137zm-13.118.366c.089.144.037.262-.115.262a.27.27 0 01-.277-.262c0-.144.052-.262.115-.262.064 0 .188.118.277.262zm7.815.175c.092.24.065.54-.061.667-.292.293-.937-.461-.71-.83.249-.404.581-.333.771.163zm18.17-.321c0 .063-.118.188-.261.277-.144.09-.262.037-.262-.115 0-.153.118-.278.261-.278.144 0 .262.052.262.116zm2.706.277c.104.273-.018.394-.396.394-.456 0-.492-.066-.221-.394.179-.216.357-.393.395-.393.04 0 .139.177.222.393zm-15.777.359c.927.029 1.735.102 1.795.163.061.061.019.323-.094.581-.112.259-.182.567-.156.686.026.119-.2.041-.504-.172-.386-.271-.773-.324-1.291-.174-.752.216-2.548.148-2.8-.105-.077-.077-.342-.03-.59.103-.351.188-.515.102-.738-.389-.243-.537-.21-.655.222-.793.28-.089.603-.103.719-.03.116.071.375.028.576-.097.2-.124.547-.136.77-.026.224.11 1.165.224 2.091.253zm67.26-.228c-.089.144-.279.263-.423.263-.144 0-.188-.119-.1-.263.089-.144.279-.262.423-.262.143 0 .188.118.1.262zm-73.515.263c0 .144-.051.262-.115.262-.063 0-.188-.118-.276-.263-.09-.144-.037-.262.115-.262a.27.27 0 01.276.263zm28.466.03c0 .128-.235.232-.522.232-.288 0-.608.008-.712.02-.104.01-.222-.08-.262-.2-.04-.12.28-.233.712-.251.43-.018.784.072.784.2zm43.604.428c-.005.108-.181.426-.392.706-.377.501-.383.5-.383-.022 0-.292.078-.61.174-.706.235-.235.611-.222.601.022zm2.228.066c-.089.144-.279.262-.422.262-.144 0-.189-.118-.1-.262.089-.144.279-.262.422-.262.144 0 .189.118.1.262zm-49.75.238c-.733.417-1.566.587-1.566.321 0-.224.464-.364 1.697-.512.144-.017.085.069-.13.191zm7.83.161c-.182.22-.384.346-.45.28-.18-.182.187-.68.502-.68.174 0 .154.151-.052.4zm-36.287-.006c0 .144.114.44.253.655.14.217.253.276.253.131 0-.144-.114-.439-.253-.655-.139-.216-.253-.275-.253-.131zm4.013.087c.074.12-.037.219-.246.219s-.38-.098-.38-.219c0-.12.11-.218.246-.218.135 0 .306.098.38.218zm-5.189.295c-.085.138-.327.184-.538.103-.54-.208-.476-.354.155-.354.295 0 .468.113.383.25zm18.692.11c-.187.226-.835.36-1.74.36-1.646 0-1.666-.21-.044-.474 1.885-.31 2.121-.294 1.785.113zm11.576-.07c-.098.16-.017.395.181.52.285.182.264.23-.097.234-.284.002-.457-.195-.457-.52 0-.289.124-.525.276-.525.152 0 .196.131.097.291zm45.552.262c-.195.124-.53.224-.746.221-.301-.003-.277-.091.104-.38.272-.208.608-.307.746-.222.144.09.1.251-.104.381zm-60.652.124c-.087.228-.159.511-.159.629s-.352.19-.783.16c-.709-.05-.905.12-.815.697.017.108-.099.196-.258.196s-.227-.162-.15-.36c.103-.272-.135-.362-.952-.363-2.012-.002-2.526-.062-2.526-.296 0-.344 1.512-.504 1.822-.193.182.183.267.169.267-.046 0-.18.365-.316.849-.319.467-.002 1.025-.118 1.24-.258.216-.14.67-.255 1.008-.258.454-.003.574.105.457.41zm21.647-.153c.09.145-.03.263-.264.263-.268 0-.392.17-.332.458.065.317.313.444.802.41.716-.05.995.496.432.845-.339.21.479.887 1.085.9.23.004.803.201 1.274.437.775.388.811.456.379.699-.46.258-.46.277.03.47.386.15.276.205-.45.218-.742.015-1-.1-1.128-.505-.09-.289-.29-.525-.44-.525-.172 0-.153.15.049.394.278.337.192.393-.604.393-1.149 0-2.354-.437-2.145-.777.086-.139-.641-.615-1.616-1.058-.975-.444-2.125-.971-2.556-1.173l-.783-.367.726-.016c.4-.01.79-.181.866-.382.128-.334 1.41-.471 1.41-.15.001.181 1.45 1.042 1.739 1.03.121-.004-.014-.194-.302-.423-.507-.403-.503-.411.172-.294.552.095.663.034.542-.298-.085-.23-.28-.504-.434-.61-.154-.106.095-.195.554-.197.458-.002.906.114.994.258zm1.437-.015c0 .44-.464.548-.618.145-.09-.238.001-.392.234-.392.211 0 .384.111.384.247zm23.634.015c-.718.31-1.13.31-.653 0 .215-.14.568-.247.783-.24.259.01.214.092-.13.24zm-59.875.312a.427.427 0 00.339.272c.14.01.386.2.546.42.255.35.332.327.598-.17.167-.314.27-.58.23-.588-.738-.166-1.776-.126-1.713.066zm38.591.157c0 .196-.196.318-.435.271-.635-.123-.707-.627-.09-.627.289 0 .525.16.525.356zm.886-.053c.098.255.04.375-.151.31-.39-.13-.606-.726-.262-.726.14 0 .326.187.413.416zm16.755-.175c-.076.123-.563.304-1.083.402-.52.098-1.255.307-1.635.465-.38.159-.778.269-.886.245-.108-.023-.196.06-.196.186 0 .125-.47.173-1.044.107-.852-.1-1.045-.04-1.045.318 0 .241-.147.385-.327.32-.179-.067-.288-.283-.242-.481.064-.277.011-.29-.228-.054-.331.327-1.031.188-1.031-.204 0-.129.243-.234.54-.234.296 0 .795-.139 1.11-.309.597-.323.831-.369 2.866-.558.688-.064 1.306-.171 1.372-.238.224-.225 1.97-.192 1.83.035zm21.129.302a.547.547 0 01-.409.244c-.142 0-.517.278-.833.617-.316.34-.788.585-1.048.545-.26-.04-.537.096-.616.3-.078.205-.373.373-.655.373-.725 0-.506-.894.245-1.002.368-.052.585-.265.585-.574 0-.528.421-.939.565-.551.049.13.494.095 1.002-.082.959-.333 1.417-.282 1.164.13zm-72.026.124c.243.635-.096.75-.42.142-.203-.379-.207-.547-.014-.547.154 0 .349.182.434.405zm1.918.243c0 .243-.152.326-.414.225-.333-.128-.346-.202-.065-.38.464-.296.479-.29.479.155zm36.953-.123c-.089.144-.272.262-.407.262-.136 0-.246-.118-.246-.262 0-.144.183-.262.407-.262.224 0 .335.118.246.262zm2.932-.104c-.086.087-.312.096-.5.02-.209-.083-.147-.145.158-.158.275-.01.429.05.342.138zm10.256.104a.27.27 0 01-.277.262c-.152 0-.204-.118-.115-.262.089-.144.213-.262.277-.262.063 0 .115.118.115.262zm-43.22.524c.088.144.036.262-.116.262a.27.27 0 01-.276-.262c0-.144.051-.262.115-.262.063 0 .188.118.276.262zm1.626-.104c-.087.087-.312.097-.5.02-.209-.083-.147-.145.157-.157.276-.012.43.05.343.137zm22.478.156c.172.174.313.2.313.06s.585-.253 1.3-.25c1.065.006 1.43.137 2.018.728.676.678.686.72.169.72-1.085 0-2.181-.334-2.181-.664 0-.335-.619-.375-.933-.06-.206.207-1.418-.33-1.418-.628 0-.318.368-.27.732.094zm6.842-.002c.625-.035.632-.02.152.346-.355.27-.597.302-.83.108-.182-.152-.72-.199-1.218-.106-.718.136-.89.085-.89-.262 0-.359.176-.398 1.067-.24.586.105 1.36.174 1.719.154zm-31.234.798c.186.125.149.192-.104.192-.216 0-.568-.116-.784-.258-.348-.23-.348-.286 0-.511.269-.174.425-.154.496.065.058.176.234.406.392.512zm32.8-.455c0 .216-.117.394-.26.394-.144 0-.262-.178-.262-.394 0-.216.118-.393.262-.393.143 0 .26.177.26.393zm1.306 0c0 .444-.045.46-.653.226-.347-.134-.364-.212-.087-.39.515-.327.74-.277.74.164zm-30.293.262c0 .217.117.394.261.394.144 0 .261-.177.261-.394 0-.216-.117-.393-.26-.393-.145 0-.262.177-.262.393zm1.211 0c-.09.238-.001.394.225.394.227 0 .316-.156.225-.394-.082-.216-.184-.393-.225-.393-.04 0-.142.177-.225.393zm35.54-.234c-.086.086-.312.096-.5.02-.208-.083-.146-.145.158-.158.275-.011.43.05.343.138zm-57.513.365c.09.145.28.263.423.263.143 0 .188-.118.1-.262-.09-.145-.28-.263-.423-.263-.143 0-.188.118-.1.263zm11.622-.043c0 .341-.31.568-.563.412-.27-.168-.038-.63.317-.63.135 0 .246.098.246.218zm63.72.028c0 .136-.117.32-.26.409-.144.089-.262-.022-.262-.247s.118-.409.261-.409c.144 0 .262.111.262.247zm-62.937.131c0 .064-.117.189-.261.278-.144.089-.261.037-.261-.116 0-.152.117-.277.26-.277.145 0 .262.051.262.115zm56.931.409c0 .144.242.262.538.262.295 0 .465-.118.376-.262-.089-.144-.33-.262-.538-.262-.207 0-.376.118-.376.262zm-50.422.546c-.611.395.255.783 1.326.595 1.025-.181 1.305-.303 1.305-.567 0-.277-2.209-.3-2.63-.028zm15.95.502a.262.262 0 01-.261.262.262.262 0 010-.524c.144 0 .261.118.261.262zm3.395.147c0 .225.12.334.265.244.146-.09.198-.275.116-.409-.224-.363-.38-.296-.38.165zm4.797.06c.07.113-.158.23-.507.26-.348.028-.634-.065-.634-.207 0-.307.957-.352 1.141-.053zm1.993.202c0 .225-.118.336-.261.247-.144-.09-.261-.273-.261-.409 0-.136.117-.247.26-.247.144 0 .262.184.262.409zm1.828.116c0 .144-.242.262-.538.262-.295 0-.465-.118-.376-.262.089-.145.33-.263.538-.263.207 0 .376.118.376.263zm1.306 0a.262.262 0 01-.261.262.262.262 0 010-.525c.143 0 .26.118.26.263zm19.329.212c-.002.188-.121.27-.265.18-.144-.088-.261-.046-.261.095 0 .442.308 1.085.52 1.085.318 0 .485-.952.235-1.347-.179-.283-.226-.286-.229-.013zm-32.47.623c-.083.21-.145.147-.157-.158-.011-.277.05-.431.137-.344.087.087.096.313.02.502zm16.79-.129c.23.203-.642.596-1.43.645-1.446.09-1.566.11-1.864.294-.168.105-.346-.013-.413-.272-.096-.371.08-.468.949-.52.587-.036 1.106-.183 1.154-.328.078-.234 1.287-.098 1.603.181zm-10.798.73c.307.309.283.388-.163.53a2.023 2.023 0 01-1.045 0c-.3-.096-.522-.047-.522.113 0 .154-.132.28-.293.28-.216 0-.217-.093-.003-.352.16-.193.221-.422.137-.507-.085-.085-.071-.29.03-.456.223-.36 1.344-.124 1.859.392zm6.47-.228c.133.347.034.393-.559.255-.492-.115-.604-.09-.352.078.311.208.3.316-.078.695-.403.404-.48.408-.761.042-.172-.224-.548-.445-.836-.49-.287-.047-.608-.203-.714-.347-.116-.158-.193-.12-.196.094-.002.249-.2.307-.657.192-.376-.095-.652-.052-.652.103 0 .146-.185.267-.411.267-.251 0-.377-.179-.323-.459.073-.378.374-.459 1.717-.459.896 0 1.628-.088 1.628-.196 0-.109.458-.197 1.017-.197.694 0 1.068.134 1.178.422zm8.464.711c.313.083.27.126-.147.147-.452.024-.58-.105-.557-.56.022-.417.064-.46.147-.146a.87.87 0 00.557.56zm2.34-.558c-.102.305-1.513.817-1.71.62-.103-.105 1.225-.858 1.596-.905.12-.015.17.113.113.285zm3.667-.134c.188.076.414.066.5-.02.087-.087-.067-.15-.342-.138-.305.012-.366.075-.158.158zm2.921.083c0 .144.118.262.262.262a.262.262 0 000-.524.262.262 0 00-.261.262zm7.182.525c-.089.144-.037.262.115.262a.27.27 0 00.277-.262c0-.145-.052-.263-.115-.263-.064 0-.188.118-.277.263zm-7.202.121c-.01.005-.059.216-.107.468-.112.59.194.586.73-.01.391-.433.385-.467-.09-.467-.282 0-.521.004-.533.01zm-17.248.814c-.714.383-.823.345-.61-.213.098-.255.35-.35.692-.261.52.137.519.15-.082.474zm19.88-.28c0 .24.126.394.28.343.155-.052.281-.206.281-.343 0-.137-.126-.291-.28-.343-.154-.052-.28.102-.28.343zm2.786-.218c-.317.318-.18.597.217.444.216-.083.392-.256.392-.385 0-.275-.36-.31-.61-.06zm-28.263.325c.08.13-.09.175-.377.1-.61-.16-.687-.338-.146-.338.207 0 .442.107.523.238zm15.292 2.383c-.335.217-.325.255.065.258.252.003.457-.114.457-.258 0-.32-.03-.32-.522 0zm-2.35.262c0 .145.294.262.653.262.359 0 .653-.117.653-.262 0-.144-.294-.262-.653-.262-.36 0-.653.118-.653.262zm-3.526.262c-.089.145-.037.263.115.263a.27.27 0 00.277-.263c0-.144-.052-.262-.115-.262-.064 0-.188.118-.277.262z" fill="#fff"/></svg>